<?xml version="1.0" standalone="no"?>
<!DOCTYPE svg PUBLIC "-//W3C//DTD SVG 1.1//EN" "http://www.w3.org/Graphics/SVG/1.1/DTD/svg11.dtd" >
<svg>
<metadata>
Created by FontForge 20090622 at Mon Apr  3 07:53:54 2017
 By deploy user
&#194;&#169; 2016 Connary Fagen
</metadata>
<defs>
<font id="VisbyCF-Bold" horiz-adv-x="622" >
  <font-face 
    font-family="Visby CF Bold"
    font-weight="700"
    font-stretch="normal"
    units-per-em="1000"
    panose-1="0 0 8 0 0 0 0 0 0 0"
    ascent="800"
    descent="-200"
    x-height="520"
    cap-height="700"
    bbox="-248 -256 1194 981"
    underline-thickness="50"
    underline-position="-50"
    unicode-range="U+0020-U+FB02"
  />
<missing-glyph horiz-adv-x="495" 
d="M406 800v-990h-314v990h314zM330 734h-164v-33h65v-37h-66v-32h165v32h-66v37h66v33zM264 606h-99v-103h165v34h-66v69zM231 572v-35h-33v35h33zM330 476h-165v-32h66v-37h-66v-33h99v70h66v32zM330 417h-33v-65h-132v-34h165v99zM330 296h-99v-55h33v22h33v-46h-99v79
h-33v-112h165v112zM330 125h-165v-112h165v112zM297 92v-46h-99v46h99zM330 -10h-165v-32h70l-70 -47v-33h165v33h-101l69 47h32v32z" />
    <glyph glyph-name="fi" unicode="fi" horiz-adv-x="595" 
d="M86 544q0 43 12 76t30 51t43 29t45.5 14t42.5 3q73 0 128 -33l-45 -89q-39 16 -69 16q-58 0 -58 -67v-24h123v-106h-123v-414h-129v414h-66v106h66v24zM412 520h129v-520h-129v520z" />
    <glyph glyph-name="fl" unicode="fl" horiz-adv-x="626" 
d="M86 544q0 43 12 76t30 51t43 29t45.5 14t42.5 3q73 0 128 -33l-45 -89q-39 16 -69 16q-58 0 -58 -67v-24h123v-106h-123v-414h-129v414h-66v106h66v24zM444 707h129v-707h-129v707z" />
    <glyph glyph-name="f_f" unicode="ff" horiz-adv-x="786" 
d="M648 611q-58 0 -58 -67v-24h123v-106h-123v-414h-129v414h-246v-414h-129v414h-66v106h66v24q0 43 12 76t30 51t43 29t45.5 14t42.5 3q73 0 128 -33l-45 -89q-39 16 -69 16q-58 0 -58 -67v-24h246v24q0 43 12 76t30 51t43 29t45.5 14t42.5 3q73 0 128 -33l-45 -89
q-39 16 -69 16z" />
    <glyph glyph-name=".notdef" horiz-adv-x="495" 
d="M406 800v-990h-314v990h314zM330 734h-164v-33h65v-37h-66v-32h165v32h-66v37h66v33zM264 606h-99v-103h165v34h-66v69zM231 572v-35h-33v35h33zM330 476h-165v-32h66v-37h-66v-33h99v70h66v32zM330 417h-33v-65h-132v-34h165v99zM330 296h-99v-55h33v22h33v-46h-99v79
h-33v-112h165v112zM330 125h-165v-112h165v112zM297 92v-46h-99v46h99zM330 -10h-165v-32h70l-70 -47v-33h165v33h-101l69 47h32v32z" />
    <glyph glyph-name=".null" horiz-adv-x="0" 
 />
    <glyph glyph-name="nonmarkingreturn" horiz-adv-x="333" 
 />
    <glyph glyph-name="space" unicode=" " horiz-adv-x="278" 
 />
    <glyph glyph-name="exclam" unicode="!" horiz-adv-x="268" 
d="M207 700v-479h-147v479h147zM134 -5q-31 0 -52.5 21t-21.5 53t21.5 53t52.5 21t52.5 -21t21.5 -53t-21.5 -53t-52.5 -21z" />
    <glyph glyph-name="quotedbl" unicode="&#x22;" horiz-adv-x="382" 
d="M159 700l-18 -228h-87l-19 228h124zM347 700l-18 -228h-87l-19 228h124z" />
    <glyph glyph-name="numbersign" unicode="#" horiz-adv-x="550" 
d="M505 408h-57l-8 -115h65v-113h-73l-13 -180h-131l13 180h-81l-13 -180h-131l13 180h-44v113h52l8 115h-60v112h68l13 180h131l-13 -180h81l13 180h131l-13 -180h49v-112zM309 293l8 115h-81l-8 -115h81z" />
    <glyph glyph-name="dollar" unicode="$" horiz-adv-x="573" 
d="M538 191q0 -82 -56.5 -134.5t-138.5 -66.5v-80h-112v81q-71 14 -123 59t-73 107l101 53q47 -106 154 -106q49 0 80.5 23t31.5 66q0 39 -26 62t-88 46l-45 16q-89 32 -136 78t-47 126q0 69 48 119.5t123 65.5v84h112v-84q61 -13 106.5 -51.5t69.5 -87.5l-97 -57
q-58 86 -135 86q-42 0 -69.5 -23t-27.5 -58q0 -30 20 -50t66 -37l48 -18q112 -40 163 -92t51 -127z" />
    <glyph glyph-name="percent" unicode="%" horiz-adv-x="698" 
d="M159 705q52 0 88 -35.5t36 -87.5t-36 -87.5t-88 -35.5t-88 35.5t-36 87.5t36 87.5t88 35.5zM505 702l103 -65l-427 -637l-105 65zM159 621q-16 0 -27.5 -11.5t-11.5 -27.5t11.5 -27.5t27.5 -11.5t27.5 11.5t11.5 27.5t-11.5 27.5t-27.5 11.5zM539 241q52 0 88 -35.5
t36 -87.5t-36 -87.5t-88 -35.5t-88 35.5t-36 87.5t36 87.5t88 35.5zM539 157q-16 0 -27.5 -11.5t-11.5 -27.5t11.5 -27.5t27.5 -11.5t27.5 11.5t11.5 27.5t-11.5 27.5t-27.5 11.5z" />
    <glyph glyph-name="ampersand" unicode="&#x26;" horiz-adv-x="765" 
d="M668 108q32 0 62 17v-107q-30 -23 -74 -23q-113 0 -113 117v19q-26 -62 -80 -102.5t-139 -40.5q-107 0 -185.5 61t-78.5 171q0 90 53 145.5t125 70.5l-136 264h432v-112h-253l123 -240h-48q-72 0 -118.5 -34.5t-46.5 -92.5q0 -55 41.5 -87.5t99.5 -32.5q64 0 114 39.5
t50 113.5v169h204v-106h-78v-156q0 -31 11 -42t35 -11z" />
    <glyph glyph-name="quotesingle" unicode="'" horiz-adv-x="194" 
d="M159 700l-18 -228h-87l-19 228h124z" />
    <glyph glyph-name="parenleft" unicode="(" horiz-adv-x="325" 
d="M277 745q-101 -183 -101 -425q0 -256 101 -450h-126q-106 189 -106 450q0 248 106 425h126z" />
    <glyph glyph-name="parenright" unicode=")" horiz-adv-x="325" 
d="M45 745h126q106 -177 106 -425q0 -261 -106 -450h-126q101 194 101 450q0 242 -101 425z" />
    <glyph glyph-name="asterisk" unicode="*" horiz-adv-x="518" 
d="M443 548l-97 -26l67 -89l-94 -58l-60 86l-60 -86l-94 58l67 89l-97 26l26 109l107 -32l-3 113h106l-1 -113l107 32z" />
    <glyph glyph-name="plus" unicode="+" horiz-adv-x="436" 
d="M406 336v-108h-135v-133h-107v133h-134v108h134v133h107v-133h135z" />
    <glyph glyph-name="comma" unicode="," horiz-adv-x="255" 
d="M25 -114l90 257h110l-89 -257h-111z" />
    <glyph glyph-name="hyphen" unicode="-" horiz-adv-x="400" 
d="M355 329v-107h-310v107h310z" />
    <glyph glyph-name="period" unicode="." horiz-adv-x="218" 
d="M109 -5q-31 0 -52.5 21t-21.5 53t21.5 53t52.5 21t52.5 -21t21.5 -53t-21.5 -53t-52.5 -21z" />
    <glyph glyph-name="slash" unicode="/" horiz-adv-x="554" 
d="M514 745l-340 -875h-134l340 875h134z" />
    <glyph glyph-name="zero" unicode="0" horiz-adv-x="807" 
d="M403 710q147 0 253 -102t106 -258t-106 -258t-253 -102t-252.5 102t-105.5 258t105.5 258t252.5 102zM403 110q95 0 161 68t66 172t-66 172t-161 68t-161 -68t-66 -172t66 -172t161 -68z" />
    <glyph glyph-name="one" unicode="1" horiz-adv-x="372" 
d="M299 700v-700h-131v582h-115v118h246z" />
    <glyph glyph-name="two" unicode="2" horiz-adv-x="563" 
d="M282 707q106 0 171 -63t65 -151q0 -16 -1.5 -30.5t-7 -30l-9 -26t-15.5 -29l-18 -28t-24.5 -32.5l-28 -34l-35 -41.5l-38.5 -46.5l-68 -81h245v-114h-474v19l179 214q105 125 133 167.5t28 86.5q0 55 -31.5 79.5t-70.5 24.5q-41 0 -71.5 -27t-30.5 -86v-18h-134v18
q0 97 63 163t173 66z" />
    <glyph glyph-name="three" unicode="3" horiz-adv-x="586" 
d="M140 201q48 -98 144 -98q29 0 56.5 9.5t51 39.5t23.5 78q0 72 -61 107.5t-159 10.5l144 240h-267v112h454l-162 -262q76 -8 129 -66.5t53 -141.5q0 -110 -75.5 -175t-187.5 -65q-86 0 -149.5 41.5t-93.5 109.5z" />
    <glyph glyph-name="four" unicode="4" horiz-adv-x="583" 
d="M548 274v-112h-75v-162h-131v162h-302v112l302 426h131v-426h75zM174 274h168v249z" />
    <glyph glyph-name="five" unicode="5" horiz-adv-x="589" 
d="M473 700v-112h-258l-19 -143q38 33 112 33q96 0 168.5 -68.5t72.5 -174.5q0 -110 -74.5 -177.5t-185.5 -67.5q-85 0 -150.5 40.5t-93.5 105.5l101 54q16 -33 51 -59t92 -26q52 0 91.5 32.5t39.5 97.5q0 67 -41 100.5t-93 33.5q-60 0 -113 -51l-108 34l47 348h361z" />
    <glyph glyph-name="six" unicode="6" horiz-adv-x="554" 
d="M456 700l-206 -272q10 9 40 9q88 0 156 -67.5t68 -156.5q0 -96 -71 -159.5t-166 -63.5q-94 0 -165.5 64.5t-71.5 161.5q0 17 2 34t4.5 30t9 30l10 26.5t13.5 27t13 24t15.5 24.5l14.5 21t16 22l15 19l169 226h134zM277 325q-52 0 -83.5 -33t-31.5 -78q0 -50 33 -81
t82 -31t82 31t33 81q0 46 -33 78.5t-82 32.5z" />
    <glyph glyph-name="seven" unicode="7" horiz-adv-x="514" 
d="M484 700l-288 -700h-127l245 588h-284v112h454z" />
    <glyph glyph-name="eight" unicode="8" horiz-adv-x="567" 
d="M415 398q52 -23 84.5 -71.5t32.5 -109.5q0 -102 -75.5 -164.5t-173.5 -62.5t-173 62.5t-75 164.5q0 61 32.5 109.5t83.5 71.5q-69 49 -69 134q0 74 55.5 126t145.5 52q91 0 146.5 -52t55.5 -126q0 -86 -70 -134zM203 521q0 -31 22 -53.5t58 -22.5t58.5 22.5t22.5 53.5
q0 32 -23 53.5t-58 21.5q-34 0 -57 -21.5t-23 -53.5zM283 106q50 0 83.5 31t33.5 80q0 52 -34.5 83t-82.5 31q-47 0 -81.5 -31t-34.5 -83q0 -50 33 -80.5t83 -30.5z" />
    <glyph glyph-name="nine" unicode="9" horiz-adv-x="554" 
d="M98 -1l206 272q-10 -9 -40 -9q-88 0 -156 67.5t-68 156.5q0 96 71 159.5t166 63.5q94 0 165.5 -64.5t71.5 -161.5q0 -17 -2 -34t-4.5 -30t-9 -30l-10 -26.5t-13.5 -27t-13 -24t-15.5 -24.5l-14.5 -21t-16 -22l-15 -19l-169 -226h-134zM277 374q52 0 83.5 33t31.5 78
q0 50 -33 81t-82 31t-82 -31t-33 -81q0 -46 33 -78.5t82 -32.5z" />
    <glyph glyph-name="colon" unicode=":" horiz-adv-x="248" 
d="M124 379q-31 0 -52.5 21t-21.5 53t21.5 53t52.5 21t52.5 -21t21.5 -53t-21.5 -53t-52.5 -21zM124 -5q-31 0 -52.5 21t-21.5 53t21.5 53t52.5 21t52.5 -21t21.5 -53t-21.5 -53t-52.5 -21z" />
    <glyph glyph-name="semicolon" unicode=";" horiz-adv-x="273" 
d="M164 379q-31 0 -52.5 21t-21.5 53t21.5 53t52.5 21t52.5 -21t21.5 -53t-21.5 -53t-52.5 -21zM25 -114l90 257h110l-89 -257h-111z" />
    <glyph glyph-name="less" unicode="&#x3c;" horiz-adv-x="497" 
d="M462 481v-122l-234 -119l234 -117v-123l-417 220v41z" />
    <glyph glyph-name="equal" unicode="=" horiz-adv-x="426" 
d="M381 409v-107h-335v107h335zM381 249v-107h-335v107h335z" />
    <glyph glyph-name="greater" unicode="&#x3e;" horiz-adv-x="497" 
d="M35 481l417 -220v-41l-417 -220v123l234 117l-234 119v122z" />
    <glyph glyph-name="question" unicode="?" horiz-adv-x="546" 
d="M276 707q100 0 165 -57t65 -152q0 -42 -17.5 -74t-42 -52l-49 -38.5t-42 -43.5t-17.5 -57v-17h-131v17q0 48 17.5 81.5t42 52t49 34.5t42 40t17.5 57q0 36 -22 66.5t-75 30.5q-54 0 -80.5 -34.5t-26.5 -77.5h-131q0 104 67.5 164t168.5 60zM273 -5q-31 0 -52.5 21
t-21.5 53t21.5 53t52.5 21t52.5 -21t21.5 -53t-21.5 -53t-52.5 -21z" />
    <glyph glyph-name="at" unicode="@" horiz-adv-x="804" 
d="M491 515h69v-194q0 -57 40 -57q45 0 45 101q0 109 -69 175t-165 66q-104 0 -178 -72.5t-74 -187.5q0 -108 76 -180t169 -72q44 0 77.5 9.5t43.5 16t38 26.5l96 -42q-39 -53 -104 -83.5t-144 -30.5q-89 0 -172.5 44.5t-138.5 128t-55 183.5q0 104 55 189t138.5 130
t172.5 45q139 0 243.5 -97.5t104.5 -249.5q0 -94 -44.5 -142.5t-112.5 -48.5q-46 0 -73 17.5t-33 39.5q-26 -57 -100 -57q-63 0 -113.5 46t-50.5 130q0 83 50.5 128.5t113.5 45.5q21 0 47 -8.5t41 -21.5zM399 271q29 0 46 21.5t17 56.5q0 33 -17 54t-46 21
q-30 0 -46.5 -21.5t-16.5 -53.5q0 -33 16.5 -55.5t46.5 -22.5z" />
    <glyph glyph-name="A" unicode="A" horiz-adv-x="780" 
d="M621 0l-58 135h-346l-58 -135h-139l312 700h117l311 -700h-139zM263 242h254l-127 297z" />
    <glyph glyph-name="B" unicode="B" horiz-adv-x="616" 
d="M434 387q63 -16 105 -65.5t42 -123.5q0 -91 -64 -144.5t-191 -53.5h-266v700h255q103 0 159.5 -50t56.5 -124q0 -51 -27.5 -86.5t-69.5 -52.5zM304 585h-113v-162h113q48 0 72.5 22.5t24.5 62.5q0 37 -25 57t-72 20zM320 115q65 0 97.5 27.5t32.5 75.5t-33.5 76
t-100.5 28h-125v-207h129z" />
    <glyph glyph-name="C" unicode="C" horiz-adv-x="681" 
d="M646 75q-97 -85 -238 -85q-148 0 -255.5 102.5t-107.5 257.5t107.5 257.5t255.5 102.5q138 0 234 -83l-79 -90q-67 50 -147 50q-99 0 -167 -67.5t-68 -169.5t68 -169.5t167 -67.5q84 0 151 54z" />
    <glyph glyph-name="D" unicode="D" horiz-adv-x="694" 
d="M300 700q149 0 251.5 -101t102.5 -246q0 -149 -102 -251t-252 -102h-240v700h240zM299 124q103 0 162.5 65.5t59.5 163.5q0 94 -59.5 158.5t-162.5 64.5h-108v-452h108z" />
    <glyph glyph-name="E" unicode="E" horiz-adv-x="541" 
d="M191 121h305v-121h-436v700h427v-121h-296v-168h225v-118h-225v-172z" />
    <glyph glyph-name="F" unicode="F" horiz-adv-x="531" 
d="M496 581h-301v-173h248v-112h-248v-296h-135v700h436v-119z" />
    <glyph glyph-name="G" unicode="G" horiz-adv-x="767" 
d="M720 374q11 -87 -10 -160.5t-65.5 -121.5t-106 -75t-131.5 -27q-150 0 -256 102t-106 258q0 155 107 257.5t255 102.5q138 0 234 -83l-79 -90q-67 50 -147 50q-99 0 -166.5 -67t-67.5 -170t65 -170t163 -67q165 0 191 152h-175v109h295z" />
    <glyph glyph-name="H" unicode="H" horiz-adv-x="682" 
d="M491 700h131v-700h-131v288h-300v-288h-131v700h131v-291h300v291z" />
    <glyph glyph-name="I" unicode="I" horiz-adv-x="251" 
d="M191 700v-700h-131v700h131z" />
    <glyph glyph-name="J" unicode="J" horiz-adv-x="539" 
d="M479 700v-464q0 -53 -15 -96t-39.5 -70.5t-56.5 -46.5t-64.5 -27t-64.5 -8q-137 0 -209 96l79 96q52 -66 124 -66q45 0 80 30.5t35 108.5v447h131z" />
    <glyph glyph-name="K" unicode="K" horiz-adv-x="691" 
d="M514 0l-230 305l-89 -100v-205h-135v700h135v-320l278 320h162l-269 -303l300 -397h-152z" />
    <glyph glyph-name="L" unicode="L" horiz-adv-x="515" 
d="M191 121h284v-121h-415v700h131v-579z" />
    <glyph glyph-name="M" unicode="M" horiz-adv-x="883" 
d="M823 700v-700h-135v433l-195 -433h-105l-193 432v-432h-135v700h131l251 -534l250 534h131z" />
    <glyph glyph-name="N" unicode="N" horiz-adv-x="716" 
d="M525 700h131v-700h-100l-365 469v-469h-131v700h101l364 -470v470z" />
    <glyph glyph-name="O" unicode="O" horiz-adv-x="814" 
d="M407 710q148 0 255 -102.5t107 -257.5t-107 -257.5t-255 -102.5t-255 102.5t-107 257.5t107 257.5t255 102.5zM407 113q93 0 159 67.5t66 169.5t-66 169.5t-159 67.5q-94 0 -160 -67.5t-66 -169.5t66 -169.5t160 -67.5z" />
    <glyph glyph-name="P" unicode="P" horiz-adv-x="592" 
d="M301 700q117 0 186.5 -65t69.5 -170q0 -104 -69 -165.5t-187 -61.5h-110v-238h-131v700h241zM294 351q62 0 97 28t35 86q0 57 -35 85.5t-97 28.5h-103v-228h103z" />
    <glyph glyph-name="Q" unicode="Q" horiz-adv-x="814" 
d="M769 350q0 -148 -100 -251l76 -99h-154l-21 28q-76 -38 -163 -38q-148 0 -255 102.5t-107 257.5t107 257.5t255 102.5t255 -102.5t107 -257.5zM407 113q43 0 85 17l-139 181h154l80 -105q45 63 45 144q0 102 -66 169.5t-159 67.5q-94 0 -160 -67.5t-66 -169.5t66 -169.5
t160 -67.5z" />
    <glyph glyph-name="R" unicode="R" horiz-adv-x="632" 
d="M602 0h-139l-156 238h-6h-110v-238h-131v700h241q117 0 186.5 -65t69.5 -170q0 -72 -34 -125t-96 -79zM191 579v-228h103q62 0 97 28t35 86q0 57 -35 85.5t-97 28.5h-103z" />
    <glyph glyph-name="S" unicode="S" horiz-adv-x="573" 
d="M287 712q82 0 142 -42.5t90 -102.5l-97 -57q-58 86 -135 86q-42 0 -69.5 -23t-27.5 -58q0 -30 20 -50t66 -37l48 -18q112 -40 163 -92t51 -127q0 -95 -75.5 -150.5t-172.5 -55.5q-92 0 -161 48.5t-94 123.5l101 53q47 -106 154 -106q49 0 80.5 23t31.5 66q0 39 -26 62
t-88 46l-45 16q-89 32 -136 78t-47 126q0 82 66 136.5t161 54.5z" />
    <glyph glyph-name="T" unicode="T" horiz-adv-x="570" 
d="M530 700v-121h-180v-579h-131v579h-179v121h490z" />
    <glyph glyph-name="U" unicode="U" horiz-adv-x="653" 
d="M462 700h131v-446q0 -123 -76.5 -196t-189.5 -73q-114 0 -190.5 72.5t-76.5 196.5v446h131v-446q0 -76 39.5 -111t96.5 -35t96 35t39 111v446z" />
    <glyph glyph-name="V" unicode="V" horiz-adv-x="780" 
d="M621 700h139l-311 -700h-117l-312 700h139l231 -539z" />
    <glyph glyph-name="W" unicode="W" horiz-adv-x="1035" 
d="M1010 700l-229 -700h-93l-171 480l-170 -480h-93l-229 700h138l144 -461l160 461h101l160 -461l144 461h138z" />
    <glyph glyph-name="X" unicode="X" horiz-adv-x="684" 
d="M659 0h-154l-163 241l-162 -241h-155l239 355l-234 345h154l157 -231l155 231h154l-232 -345z" />
    <glyph glyph-name="Y" unicode="Y" horiz-adv-x="711" 
d="M686 700l-265 -415v-285h-131v285l-265 415h148l182 -292l182 292h149z" />
    <glyph glyph-name="Z" unicode="Z" horiz-adv-x="605" 
d="M576 700l-342 -587h346v-113h-555l342 588h-323v112h532z" />
    <glyph glyph-name="bracketleft" unicode="[" horiz-adv-x="298" 
d="M253 745v-112h-77v-650h77v-113h-208v875h208z" />
    <glyph glyph-name="backslash" unicode="\" horiz-adv-x="554" 
d="M40 745h134l340 -875h-134z" />
    <glyph glyph-name="bracketright" unicode="]" horiz-adv-x="298" 
d="M45 745h208v-875h-208v113h77v650h-77v112z" />
    <glyph glyph-name="asciicircum" unicode="^" horiz-adv-x="496" 
d="M284 700l167 -225h-91l-111 107l-113 -107h-91l167 225h72z" />
    <glyph glyph-name="underscore" unicode="_" horiz-adv-x="590" 
d="M545 0v-113h-500v113h500z" />
    <glyph glyph-name="grave" unicode="`" horiz-adv-x="212" 
d="M0 740h154l58 -159h-97z" />
    <glyph glyph-name="a" unicode="a" 
d="M277 529q61 0 110 -30.5t54 -58.5v80h128v-520h-128v88q-5 -35 -53 -66.5t-111 -31.5q-94 0 -171.5 71.5t-77.5 198.5q0 64 23 117t60 85t80 49.5t86 17.5zM298 415q-60 0 -102.5 -41t-42.5 -114q0 -74 42.5 -115t102.5 -41q61 0 105 41t44 115q0 73 -44 114t-105 41z
" />
    <glyph glyph-name="b" unicode="b" 
d="M345 529q43 0 86 -17.5t80 -49.5t60 -85t23 -117q0 -127 -77.5 -198.5t-171.5 -71.5q-63 0 -111 31.5t-53 66.5v-88h-128v707h129v-263q10 28 57.5 56.5t105.5 28.5zM324 104q60 0 102.5 41t42.5 115q0 73 -42.5 114t-102.5 41q-61 0 -105 -41t-44 -114q0 -74 44 -115
t105 -41z" />
    <glyph glyph-name="c" unicode="c" horiz-adv-x="553" 
d="M299 529q151 0 222 -125l-98 -46q-50 57 -123 57q-58 0 -102.5 -41.5t-44.5 -114.5q0 -72 44.5 -113t102.5 -41q74 0 123 56l100 -46q-74 -124 -224 -124q-63 0 -123 28t-104 91t-44 149q0 64 25.5 117.5t66 85.5t87 49.5t92.5 17.5z" />
    <glyph glyph-name="d" unicode="d" 
d="M440 707h129v-707h-128v88q-5 -35 -53 -66.5t-111 -31.5q-94 0 -171.5 71.5t-77.5 198.5q0 64 23 117t60 85t80 49.5t86 17.5q58 0 105.5 -28.5t57.5 -56.5v263zM298 104q61 0 105 41t44 115q0 73 -44 114t-105 41q-60 0 -102.5 -41t-42.5 -114q0 -74 42.5 -115
t102.5 -41z" />
    <glyph glyph-name="e" unicode="e" horiz-adv-x="577" 
d="M294 529q37 0 74.5 -11t73 -35.5t61.5 -60t38 -89.5t4 -119h-389q12 -56 52.5 -85.5t98.5 -29.5q46 0 74 9.5t61 30.5l71 -69q-75 -80 -210 -80q-50 0 -98 17.5t-88 49.5t-64.5 85t-24.5 117t25 117.5t64.5 85.5t85.5 49.5t91 17.5zM294 419q-46 0 -85 -29.5t-52 -82.5
h275q-10 52 -50.5 82t-87.5 30z" />
    <glyph glyph-name="f" unicode="f" horiz-adv-x="412" 
d="M273 611q-58 0 -58 -67v-24h123v-106h-123v-414h-129v414h-66v106h66v24q0 43 12 76t30 51t43 29t45.5 14t42.5 3q73 0 128 -33l-45 -89q-39 16 -69 16z" />
    <glyph glyph-name="g" unicode="g" 
d="M441 520h128v-520q0 -45 -16.5 -81.5t-43.5 -59t-62 -38t-69.5 -21.5t-69.5 -6q-91 0 -144 31v106q51 -30 144 -30q65 0 99 29t34 70v88q-5 -35 -53 -66.5t-111 -31.5q-94 0 -171.5 71.5t-77.5 198.5q0 64 23 117t60 85t80 49.5t86 17.5q61 0 110 -30.5t54 -58.5v80z
M298 104q61 0 105 41t44 115q0 73 -44 114t-105 41q-60 0 -102.5 -41t-42.5 -114q0 -74 42.5 -115t102.5 -41z" />
    <glyph glyph-name="h" unicode="h" horiz-adv-x="600" 
d="M356 528q80 0 137 -57t57 -171v-300h-128v292q0 63 -30 93.5t-76 30.5q-56 0 -89.5 -35t-44.5 -69v-312h-129v707h129v-289q11 34 57.5 72t116.5 38z" />
    <glyph glyph-name="i" unicode="i" horiz-adv-x="235" 
d="M182 707v-123h-129v123h129zM182 520v-520h-129v520h129z" />
    <glyph glyph-name="j" unicode="j" horiz-adv-x="257" 
d="M204 707v-123h-129v123h129zM204 520v-566q0 -81 -40 -120.5t-111 -39.5q-65 0 -108 26v108q37 -18 73 -18q57 0 57 60v550h129z" />
    <glyph glyph-name="k" unicode="k" horiz-adv-x="588" 
d="M420 0l-190 214l-48 -50v-164h-129v707h129v-386l185 199h154l-211 -222l258 -298h-148z" />
    <glyph glyph-name="l" unicode="l" horiz-adv-x="235" 
d="M182 707v-707h-129v707h129z" />
    <glyph glyph-name="m" unicode="m" horiz-adv-x="973" 
d="M720 528q87 0 145 -59t58 -180v-289h-128v287q0 60 -29 94.5t-84 34.5q-51 0 -85 -35.5t-44 -83.5v-297h-129v287q0 58 -32 93.5t-81 35.5q-54 0 -87 -34t-42 -85v-297h-129v520h129v-106q3 32 46.5 73t113.5 41q57 0 108 -31t79 -89q16 41 65.5 80.5t125.5 39.5z" />
    <glyph glyph-name="n" unicode="n" horiz-adv-x="600" 
d="M356 528q80 0 137 -57t57 -171v-300h-128v292q0 63 -30 93.5t-76 30.5q-56 0 -89.5 -35t-44.5 -69v-312h-129v520h129v-102q11 34 57.5 72t116.5 38z" />
    <glyph glyph-name="o" unicode="o" horiz-adv-x="599" 
d="M299 529q46 0 92.5 -17.5t87 -49.5t66 -85.5t25.5 -117.5q0 -65 -25.5 -118t-66 -85t-87 -49t-92.5 -17t-92.5 17t-87 49t-66 85t-25.5 118q0 64 25.5 117.5t66 85.5t87 49.5t92.5 17.5zM299 415q-57 0 -101.5 -42t-44.5 -114t44.5 -113.5t101.5 -41.5t102 41.5t45 113.5
q0 73 -44.5 114.5t-102.5 41.5z" />
    <glyph glyph-name="p" unicode="p" 
d="M345 529q43 0 86 -17.5t80 -49.5t60 -85t23 -117q0 -127 -77.5 -198.5t-171.5 -71.5q-60 0 -107 29t-56 64v-273h-129v710h128v-80q5 28 54 58.5t110 30.5zM324 104q60 0 102.5 41t42.5 115q0 73 -42.5 114t-102.5 41q-61 0 -105 -41t-44 -114q0 -74 44 -115t105 -41z
" />
    <glyph glyph-name="q" unicode="q" horiz-adv-x="629" 
d="M448 520h128v-710h-129v273q-9 -35 -56 -64t-107 -29q-94 0 -171.5 71.5t-77.5 198.5q0 64 23 117t60 85t80 49.5t86 17.5q61 0 110 -30.5t54 -58.5v80zM305 104q61 0 105 41t44 115q0 73 -44 114t-105 41q-60 0 -102.5 -41t-42.5 -114q0 -74 42.5 -115t102.5 -41z" />
    <glyph glyph-name="r" unicode="r" horiz-adv-x="430" 
d="M364 528q24 0 36 -2v-123q-11 2 -32 2q-74 0 -126.5 -48t-59.5 -126v-231h-129v520h129v-131q17 61 65 100t117 39z" />
    <glyph glyph-name="s" unicode="s" horiz-adv-x="458" 
d="M303 371q-25 55 -75 55q-25 0 -42 -13t-17 -34q0 -35 50 -54l61 -21q35 -13 57 -23.5t45.5 -28t34.5 -43t11 -59.5q0 -76 -58 -118.5t-143 -42.5q-79 0 -132.5 38t-69.5 106l102 31q11 -32 37 -52.5t63 -20.5q32 0 54 16.5t22 40.5q0 34 -54 55l-60 21q-144 52 -144 156
q0 67 52 108t126 41q69 0 117 -34.5t70 -94.5z" />
    <glyph glyph-name="t" unicode="t" horiz-adv-x="370" 
d="M335 414h-111v-257q0 -50 43 -50q35 0 68 12v-107q-36 -18 -102 -18q-64 0 -100.5 34.5t-36.5 126.5v259h-73v106h73v122h128v-122h111v-106z" />
    <glyph glyph-name="u" unicode="u" horiz-adv-x="595" 
d="M239 -8q-80 0 -137 57t-57 171v300h128v-292q0 -63 30 -93.5t76 -30.5q56 0 89.5 35t44.5 69v312h129v-520h-129v102q-11 -34 -57.5 -72t-116.5 -38z" />
    <glyph glyph-name="v" unicode="v" horiz-adv-x="626" 
d="M601 521l-229 -521h-117l-230 521h132l156 -366l157 366h131z" />
    <glyph glyph-name="w" unicode="w" horiz-adv-x="945" 
d="M791 521h129l-191 -521h-122l-135 367l-135 -367h-121l-191 521h128l125 -364l138 364h113l137 -364z" />
    <glyph glyph-name="x" unicode="x" horiz-adv-x="592" 
d="M421 0l-125 173l-125 -173h-148l199 266l-182 254h146l110 -160l110 160h146l-182 -254l199 -266h-148z" />
    <glyph glyph-name="y" unicode="y" horiz-adv-x="626" 
d="M471 521h130l-317 -711h-129l94 207l-224 504h131l157 -364z" />
    <glyph glyph-name="z" unicode="z" horiz-adv-x="537" 
d="M512 520l-280 -407h266v-113h-473l280 408h-255v112h462z" />
    <glyph glyph-name="braceleft" unicode="{" horiz-adv-x="336" 
d="M291 745v-112h-35q-35 0 -35 -31v-228l-53 -68l53 -66v-227q0 -30 35 -30h35v-113h-94q-43 0 -75 24t-32 83v258l-45 71l45 73v259q0 59 32.5 83t74.5 24h94z" />
    <glyph glyph-name="bar" unicode="|" horiz-adv-x="263" 
d="M188 800v-990h-113v990h113z" />
    <glyph glyph-name="braceright" unicode="}" horiz-adv-x="336" 
d="M45 745h94q42 0 74.5 -24t32.5 -83v-259l45 -73l-45 -71v-258q0 -59 -32 -83t-75 -24h-94v113h35q35 0 35 30v227l53 66l-53 68v228q0 31 -35 31h-35v112z" />
    <glyph glyph-name="asciitilde" unicode="~" horiz-adv-x="521" 
d="M172 371q43 0 109.5 -35t100.5 -35q16 0 30 8t14 18h50q0 -54 -32.5 -90t-92.5 -36q-42 0 -109.5 40t-105.5 40q-15 0 -29 -11t-13 -24h-49q0 54 32.5 89.5t94.5 35.5z" />
    <glyph glyph-name="exclamdown" unicode="&#xa1;" horiz-adv-x="251" 
d="M134 525q31 0 52.5 -21t21.5 -53t-21.5 -53t-52.5 -21t-52.5 21t-21.5 53t21.5 53t52.5 21zM207 -180h-147v479h147v-479z" />
    <glyph glyph-name="cent" unicode="&#xa2;" horiz-adv-x="553" 
d="M523 188q-63 -106 -187 -120v-108h-69v108q-95 12 -167 80t-72 181q0 112 72.5 181t166.5 81v109h69v-109q122 -14 185 -120l-98 -45q-38 43 -87 53v-298q51 9 87 52zM153 329q0 -59 33 -97.5t81 -49.5v296q-48 -11 -81 -50t-33 -99z" />
    <glyph glyph-name="sterling" unicode="&#xa3;" horiz-adv-x="588" 
d="M543 460h-127v23q0 44 -26.5 77t-86.5 33q-57 0 -85 -29.5t-28 -74.5q0 -41 41 -117h168v-96h-129q2 -16 2 -25q0 -42 -19.5 -80t-49.5 -58h331v-113h-489v113q104 59 104 140q0 7 -2 23h-103v96h60q-39 72 -39 130q0 93 71 149t172 56q103 0 169 -59t66 -163v-25z" />
    <glyph glyph-name="currency" unicode="&#xa4;" horiz-adv-x="534" 
d="M455 476q0 -53 -23 -99l47 -47l-81 -79l-40 40q-56 -39 -127 -39q-69 0 -124 38l-39 -39l-81 79l44 44q-24 50 -24 102q0 58 26 105l-46 46l81 79l42 -42q55 36 121 36t124 -37l43 43l81 -79l-49 -49q25 -47 25 -102zM231 358q59 0 89 39t30 79t-30 79t-89 39t-88.5 -39
t-29.5 -79q0 -41 29.5 -79.5t88.5 -38.5z" />
    <glyph glyph-name="yen" unicode="&#xa5;" horiz-adv-x="711" 
d="M421 285v-2h133v-87h-133v-39h133v-87h-133v-70h-131v70h-134v87h134v39h-134v87h134v2l-265 415h148l182 -292l182 292h149z" />
    <glyph glyph-name="brokenbar" unicode="&#xa6;" horiz-adv-x="263" 
d="M188 800v-280h-113v280h113zM188 90v-280h-113v280h113z" />
    <glyph glyph-name="section" unicode="&#xa7;" horiz-adv-x="604" 
d="M357 440q207 -64 207 -225q0 -50 -28 -95q28 -47 28 -104q0 -64 -40.5 -113.5t-99 -73.5t-120.5 -24q-102 0 -175.5 62.5t-93.5 161.5l136 43q6 -60 42 -96.5t91 -36.5q50 0 83.5 20.5t33.5 56.5t-22.5 56t-64.5 35l-88 29q-176 56 -176 201q0 46 29 100q-29 53 -29 104
q0 88 70 145.5t167 57.5q106 0 178 -63.5t86 -148.5l-144 -42q10 42 -25 81t-95 39q-43 0 -68.5 -19.5t-25.5 -49.5q0 -29 17.5 -46.5t56.5 -29.5zM357 238q39 -12 64 -23q0 67 -87 95l-88 27q-35 13 -37 14q4 -10 4 -14q0 -29 17.5 -46t56.5 -28zM421 215q2 -1 6 -2.5
t5 -1.5q-10 5 -11 4z" />
    <glyph glyph-name="dieresis" unicode="&#xa8;" horiz-adv-x="357" 
d="M119 701v-112h-119v112h119zM357 701v-112h-120v112h120z" />
    <glyph glyph-name="copyright" unicode="&#xa9;" horiz-adv-x="794" 
d="M397 707q89 0 169 -43.5t131.5 -127t51.5 -186.5t-51.5 -186.5t-131.5 -127t-169 -43.5t-169 43.5t-131.5 127t-51.5 186.5t51.5 186.5t131.5 127t169 43.5zM397 104q96 0 168 70.5t72 175.5t-72 175.5t-168 70.5t-168 -70.5t-72 -175.5t72 -175.5t168 -70.5zM408 268
q36 0 60 22l63 -72q-43 -56 -127 -56q-75 0 -130.5 53.5t-55.5 134.5t55.5 134.5t130.5 53.5q84 0 127 -56l-63 -72q-24 22 -60 22q-32 0 -56 -24.5t-24 -57.5t24 -57.5t56 -24.5z" />
    <glyph glyph-name="ordfeminine" unicode="&#xaa;" horiz-adv-x="413" 
d="M184 714q72 0 110 -40t38 -116v-96q0 -29 5.5 -45t22.5 -39h-88q-9 6 -17 39q-36 -42 -92 -42q-62 0 -98.5 28t-36.5 78q0 48 39.5 74t99.5 30l74 6q0 23 -17 36.5t-40 13.5q-53 0 -101 -37l-41 51q55 59 142 59zM241 524l-75 -8q-50 -5 -50 -35q0 -34 47 -34q53 0 78 54
v23z" />
    <glyph glyph-name="guillemotleft" unicode="&#xab;" horiz-adv-x="428" 
d="M40 311l149 150l40 -43l-102 -132l102 -132l-40 -43l-149 149v51zM214 311l149 150l40 -43l-102 -132l102 -132l-40 -43l-149 149v51z" />
    <glyph glyph-name="logicalnot" unicode="&#xac;" horiz-adv-x="516" 
d="M471 302v-181h-131v74h-295v107h426z" />
    <glyph glyph-name="uni00AD" unicode="&#xad;" horiz-adv-x="400" 
d="M355 329v-107h-310v107h310z" />
    <glyph glyph-name="registered" unicode="&#xae;" horiz-adv-x="794" 
d="M397 707q89 0 169 -43.5t131.5 -127t51.5 -186.5t-51.5 -186.5t-131.5 -127t-169 -43.5t-169 43.5t-131.5 127t-51.5 186.5t51.5 186.5t131.5 127t169 43.5zM397 104q96 0 168 70.5t72 175.5t-72 175.5t-168 70.5t-168 -70.5t-72 -175.5t72 -175.5t168 -70.5zM387 529
q64 0 102 -31.5t38 -78.5q0 -74 -68 -111l88 -129h-86l-79 126h-32v-126h-80v350h117zM396 459h-49v-89h49q50 0 50 45q0 44 -50 44z" />
    <glyph glyph-name="macron" unicode="&#xaf;" horiz-adv-x="376" 
d="M376 700v-106h-376v106h376z" />
    <glyph glyph-name="degree" unicode="&#xb0;" horiz-adv-x="387" 
d="M194 719q61 0 104.5 -43t43.5 -103q0 -61 -43.5 -105t-104.5 -44t-105 44t-44 105q0 60 44 103t105 43zM194 625q-28 0 -40.5 -18.5t-12.5 -33.5q0 -18 12.5 -36.5t40.5 -18.5t40 18.5t12 36.5q0 16 -12 34t-40 18z" />
    <glyph glyph-name="plusminus" unicode="&#xb1;" horiz-adv-x="430" 
d="M271 350h135v-108h-135v-133h-107v133h-134v108h134v133h107v-133zM45 1v107h335v-107h-335z" />
    <glyph glyph-name="uni00B2" unicode="&#xb2;" horiz-adv-x="261" 
d="M129 704q34 0 59 -22.5t25 -52.5q0 -26 -14.5 -47t-53.5 -61l-47 -49h118v-32h-168v32l68 69q28 29 36.5 38.5t15.5 22.5t7 27q0 18 -14 31t-32 13q-19 0 -33 -13t-14 -37v-14h-37v14q0 35 24.5 58t59.5 23z" />
    <glyph glyph-name="uni00B3" unicode="&#xb3;" horiz-adv-x="268" 
d="M131 703q32 0 56 -20.5t24 -47.5q0 -32 -30 -53q42 -18 42 -66q0 -34 -27.5 -57t-64.5 -23q-41 0 -68 27.5t-23 63.5h38q-6 -23 11 -41t42 -18q22 0 38 13.5t16 34.5q0 28 -20 39t-54 5v32q63 3 63 43q0 15 -12.5 26t-30.5 11q-22 0 -35.5 -16t-10.5 -42h-38
q-4 38 21.5 63.5t62.5 25.5z" />
    <glyph glyph-name="acute" unicode="&#xb4;" horiz-adv-x="212" 
d="M212 740l-115 -159h-97l58 159h154z" />
    <glyph glyph-name="uni00B5" unicode="&#xb5;" horiz-adv-x="595" 
d="M413 520h129v-520h-129v102q-11 -34 -57.5 -72t-116.5 -38q-31 0 -60 9v-191h-129v350q-5 30 -5 60v300h134v-340q21 -76 100 -76q56 0 89.5 35t44.5 69v312z" />
    <glyph glyph-name="paragraph" unicode="&#xb6;" horiz-adv-x="885" 
d="M94 465q0 105 69.5 170t186.5 65h241v-700h-131v238h-110q-118 0 -187 61.5t-69 165.5zM684 700h131v-700h-131v700zM460 579h-103q-62 0 -97 -28.5t-35 -85.5q0 -58 35 -86t97 -28h103v228z" />
    <glyph glyph-name="periodcentered" unicode="&#xb7;" horiz-adv-x="251" 
d="M109 204q-31 0 -52.5 21t-21.5 53t21.5 53t52.5 21t52.5 -21t21.5 -53t-21.5 -53t-52.5 -21z" />
    <glyph glyph-name="cedilla" unicode="&#xb8;" horiz-adv-x="208" 
d="M114 -43q38 -7 66 -28.5t28 -55.5q0 -59 -61 -83t-147 -3l10 32q44 -9 70 9t26 45q0 22 -22 35.5t-48 -2.5l-39 36l34 58h131z" />
    <glyph glyph-name="uni00B9" unicode="&#xb9;" horiz-adv-x="199" 
d="M125 701v-261h-37v221l-17 -11l-18 31l35 20h37z" />
    <glyph glyph-name="ordmasculine" unicode="&#xba;" horiz-adv-x="377" 
d="M189 705q60 0 109.5 -45t49.5 -118t-49 -118t-110 -45t-111 45t-50 118t50 118t111 45zM189 619q-30 0 -53 -21.5t-23 -55.5q0 -35 23 -56.5t53 -21.5q29 0 51.5 21.5t22.5 56.5q0 34 -22.5 55.5t-51.5 21.5z" />
    <glyph glyph-name="guillemotright" unicode="&#xbb;" horiz-adv-x="428" 
d="M214 311v-51l-149 -149l-40 43l102 132l-102 132l40 43zM388 311v-51l-149 -149l-40 43l102 132l-102 132l40 43z" />
    <glyph glyph-name="onequarter" unicode="&#xbc;" horiz-adv-x="569" 
d="M100 701v-261h-37v221l-17 -11l-18 31l35 20h37zM503 700l-430 -700h-48l436 700h42zM517 261v-154h27v-31h-27v-76h-37v76h-132l132 185h37zM480 202l-65 -95h65v95z" />
    <glyph glyph-name="onehalf" unicode="&#xbd;" horiz-adv-x="544" 
d="M100 701v-261h-37v221l-17 -11l-18 31l35 20h37zM503 700l-430 -700h-48l436 700h42zM432 264q34 0 59 -22.5t25 -52.5q0 -26 -14.5 -47t-53.5 -61l-47 -49h118v-32h-168v32l68 69q28 29 36.5 38.5t15.5 22.5t7 27q0 18 -14 31t-32 13q-19 0 -33 -13t-14 -37v-14h-37v14
q0 35 24.5 58t59.5 23z" />
    <glyph glyph-name="threequarters" unicode="&#xbe;" horiz-adv-x="587" 
d="M116 703q32 0 56 -20.5t24 -47.5q0 -32 -30 -53q42 -18 42 -66q0 -34 -27.5 -57t-64.5 -23q-41 0 -68 27.5t-23 63.5h38q-6 -23 11 -41t42 -18q22 0 38 13.5t16 34.5q0 28 -20 39t-54 5v32q63 3 63 43q0 15 -12.5 26t-30.5 11q-22 0 -35.5 -16t-10.5 -42h-38
q-4 38 21.5 63.5t62.5 25.5zM531 700l-430 -700h-48l436 700h42zM535 261v-154h27v-31h-27v-76h-37v76h-132l132 185h37zM498 202l-65 -95h65v95z" />
    <glyph glyph-name="questiondown" unicode="&#xbf;" horiz-adv-x="546" 
d="M273 525q31 0 52.5 -21t21.5 -53t-21.5 -53t-52.5 -21t-52.5 21t-21.5 53t21.5 53t52.5 21zM270 -187q-100 0 -165 57t-65 152q0 42 17.5 74t42 52l49 38.5t42 43.5t17.5 57v17h131v-17q0 -48 -17.5 -81.5t-42 -52t-49 -34.5t-42 -40t-17.5 -57q0 -36 22 -66.5t75 -30.5
q54 0 80.5 34.5t26.5 77.5h131q0 -104 -67.5 -164t-168.5 -60z" />
    <glyph glyph-name="Agrave" unicode="&#xc0;" horiz-adv-x="780" 
d="M448 761h-97l-115 159h154zM621 0l-58 135h-346l-58 -135h-139l312 700h117l311 -700h-139zM263 242h254l-127 297z" />
    <glyph glyph-name="Aacute" unicode="&#xc1;" horiz-adv-x="780" 
d="M552 920l-115 -159h-97l58 159h154zM621 0l-58 135h-346l-58 -135h-139l312 700h117l311 -700h-139zM263 242h254l-127 297z" />
    <glyph glyph-name="Acircumflex" unicode="&#xc2;" horiz-adv-x="780" 
d="M390 857l-113 -104l-40 38l127 154h51l128 -154l-40 -38zM621 0l-58 135h-346l-58 -135h-139l312 700h117l311 -700h-139zM263 242h254l-127 297z" />
    <glyph glyph-name="Atilde" unicode="&#xc3;" horiz-adv-x="780" 
d="M286 832q-16 0 -30 -10t-13 -24h-49q0 54 30.5 90t86.5 36q39 0 97 -34.5t82 -34.5q16 0 30.5 7.5t14.5 17.5h50q0 -54 -30.5 -90.5t-83.5 -36.5q-39 0 -99 39.5t-86 39.5zM621 0l-58 135h-346l-58 -135h-139l312 700h117l311 -700h-139zM263 242h254l-127 297z" />
    <glyph glyph-name="Adieresis" unicode="&#xc4;" horiz-adv-x="780" 
d="M331 881v-112h-119v112h119zM569 881v-112h-120v112h120zM621 0l-58 135h-346l-58 -135h-139l312 700h117l311 -700h-139zM263 242h254l-127 297z" />
    <glyph glyph-name="Aring" unicode="&#xc5;" horiz-adv-x="780" 
d="M391 765q-46 0 -78.5 31.5t-32.5 75.5q0 45 32.5 77t78.5 32q43 0 75 -32.5t32 -76.5t-32 -75.5t-75 -31.5zM388 902q-11 0 -19 -8t-8 -20q0 -11 8 -19.5t19 -8.5t20 8.5t9 19.5q0 12 -8.5 20t-20.5 8zM621 0l-58 135h-346l-58 -135h-139l312 700h117l311 -700h-139z
M263 242h254l-127 297z" />
    <glyph glyph-name="AE" unicode="&#xc6;" horiz-adv-x="988" 
d="M638 121h305v-121h-436v191h-211l-130 -191h-146l479 700h435v-121h-296v-168h225v-118h-225v-172zM373 303h134v196z" />
    <glyph glyph-name="Ccedilla" unicode="&#xc7;" horiz-adv-x="681" 
d="M404 -43q38 -7 66 -28.5t28 -55.5q0 -59 -61 -83t-147 -3l10 32q44 -9 70 9t26 45q0 22 -22 35.5t-48 -2.5l-39 36l34 58h1q-120 29 -198.5 124t-78.5 226q0 155 107.5 257.5t255.5 102.5q138 0 234 -83l-79 -90q-67 50 -147 50q-99 0 -167 -67.5t-68 -169.5t68 -169.5
t167 -67.5q84 0 151 54l79 -92q-84 -73 -204 -84z" />
    <glyph glyph-name="Egrave" unicode="&#xc8;" horiz-adv-x="541" 
d="M341 761h-97l-115 159h154zM191 121h305v-121h-436v700h427v-121h-296v-168h225v-118h-225v-172z" />
    <glyph glyph-name="Eacute" unicode="&#xc9;" horiz-adv-x="541" 
d="M445 920l-115 -159h-97l58 159h154zM191 121h305v-121h-436v700h427v-121h-296v-168h225v-118h-225v-172z" />
    <glyph glyph-name="Ecircumflex" unicode="&#xca;" horiz-adv-x="541" 
d="M283 857l-113 -104l-40 38l127 154h51l128 -154l-40 -38zM191 121h305v-121h-436v700h427v-121h-296v-168h225v-118h-225v-172z" />
    <glyph glyph-name="Edieresis" unicode="&#xcb;" horiz-adv-x="541" 
d="M224 881v-112h-119v112h119zM462 881v-112h-120v112h120zM191 121h305v-121h-436v700h427v-121h-296v-168h225v-118h-225v-172z" />
    <glyph glyph-name="Igrave" unicode="&#xcc;" horiz-adv-x="251" 
d="M-28 920h154l58 -159h-97zM191 700v-700h-131v700h131z" />
    <glyph glyph-name="Iacute" unicode="&#xcd;" horiz-adv-x="251" 
d="M288 920l-115 -159h-97l58 159h154zM191 700v-700h-131v700h131z" />
    <glyph glyph-name="Icircumflex" unicode="&#xce;" horiz-adv-x="251" 
d="M151 945l128 -154l-40 -38l-113 104l-113 -104l-40 38l127 154h51zM191 700v-700h-131v700h131z" />
    <glyph glyph-name="Idieresis" unicode="&#xcf;" horiz-adv-x="251" 
d="M67 881v-112h-119v112h119zM305 881v-112h-120v112h120zM191 700v-700h-131v700h131z" />
    <glyph glyph-name="Eth" unicode="&#xd0;" horiz-adv-x="770" 
d="M376 700q149 0 251.5 -101t102.5 -246q0 -149 -102 -251t-252 -102h-240v290h-58v107h58v303h240zM375 124q103 0 162.5 65.5t59.5 163.5q0 94 -59.5 158.5t-162.5 64.5h-108v-179h121v-107h-121v-166h108z" />
    <glyph glyph-name="Ntilde" unicode="&#xd1;" horiz-adv-x="716" 
d="M280 924q38 0 97 -34.5t82 -34.5q16 0 30.5 7.5t14.5 17.5h50q0 -54 -30.5 -90.5t-83.5 -36.5q-39 0 -99 39.5t-86 39.5q-16 0 -30 -10t-13 -24h-49q0 54 30.5 90t86.5 36zM525 700h131v-700h-100l-365 469v-469h-131v700h101l364 -470v470z" />
    <glyph glyph-name="Ograve" unicode="&#xd2;" horiz-adv-x="814" 
d="M251 920h154l58 -159h-97zM407 710q148 0 255 -102.5t107 -257.5t-107 -257.5t-255 -102.5t-255 102.5t-107 257.5t107 257.5t255 102.5zM407 113q93 0 159 67.5t66 169.5t-66 169.5t-159 67.5q-94 0 -160 -67.5t-66 -169.5t66 -169.5t160 -67.5z" />
    <glyph glyph-name="Oacute" unicode="&#xd3;" horiz-adv-x="814" 
d="M567 920l-115 -159h-97l58 159h154zM407 710q148 0 255 -102.5t107 -257.5t-107 -257.5t-255 -102.5t-255 102.5t-107 257.5t107 257.5t255 102.5zM407 113q93 0 159 67.5t66 169.5t-66 169.5t-159 67.5q-94 0 -160 -67.5t-66 -169.5t66 -169.5t160 -67.5z" />
    <glyph glyph-name="Ocircumflex" unicode="&#xd4;" horiz-adv-x="814" 
d="M430 945l128 -154l-40 -38l-113 104l-113 -104l-40 38l127 154h51zM407 710q148 0 255 -102.5t107 -257.5t-107 -257.5t-255 -102.5t-255 102.5t-107 257.5t107 257.5t255 102.5zM407 113q93 0 159 67.5t66 169.5t-66 169.5t-159 67.5q-94 0 -160 -67.5t-66 -169.5
t66 -169.5t160 -67.5z" />
    <glyph glyph-name="Otilde" unicode="&#xd5;" horiz-adv-x="814" 
d="M326 924q38 0 97 -34.5t82 -34.5q16 0 30.5 7.5t14.5 17.5h50q0 -54 -30.5 -90.5t-83.5 -36.5q-39 0 -99 39.5t-86 39.5q-16 0 -30 -10t-13 -24h-49q0 54 30.5 90t86.5 36zM407 710q148 0 255 -102.5t107 -257.5t-107 -257.5t-255 -102.5t-255 102.5t-107 257.5
t107 257.5t255 102.5zM407 113q93 0 159 67.5t66 169.5t-66 169.5t-159 67.5q-94 0 -160 -67.5t-66 -169.5t66 -169.5t160 -67.5z" />
    <glyph glyph-name="Odieresis" unicode="&#xd6;" horiz-adv-x="814" 
d="M346 881v-112h-119v112h119zM584 881v-112h-120v112h120zM407 710q148 0 255 -102.5t107 -257.5t-107 -257.5t-255 -102.5t-255 102.5t-107 257.5t107 257.5t255 102.5zM407 113q93 0 159 67.5t66 169.5t-66 169.5t-159 67.5q-94 0 -160 -67.5t-66 -169.5t66 -169.5
t160 -67.5z" />
    <glyph glyph-name="multiply" unicode="&#xd7;" horiz-adv-x="404" 
d="M381 184l-77 -77l-95 96l-94 -94l-76 75l94 94l-95 95l77 76l95 -94l94 94l75 -76l-94 -94z" />
    <glyph glyph-name="Oslash" unicode="&#xd8;" horiz-adv-x="814" 
d="M621 642q68 -49 108 -124.5t40 -167.5q0 -155 -107 -257.5t-255 -102.5q-49 0 -92 12l-25 -52h-146l51 107q-69 49 -109.5 125t-40.5 168q0 155 107 257.5t255 102.5q49 0 94 -12l23 47h146zM181 350q0 -106 71 -174l195 407q-17 4 -40 4q-94 0 -160 -67.5t-66 -169.5z
M407 113q93 0 159 67.5t66 169.5q0 103 -69 172l-194 -406q19 -3 38 -3z" />
    <glyph glyph-name="Ugrave" unicode="&#xd9;" horiz-adv-x="653" 
d="M173 920h154l58 -159h-97zM462 700h131v-446q0 -123 -76.5 -196t-189.5 -73q-114 0 -190.5 72.5t-76.5 196.5v446h131v-446q0 -76 39.5 -111t96.5 -35t96 35t39 111v446z" />
    <glyph glyph-name="Uacute" unicode="&#xda;" horiz-adv-x="653" 
d="M489 920l-115 -159h-97l58 159h154zM462 700h131v-446q0 -123 -76.5 -196t-189.5 -73q-114 0 -190.5 72.5t-76.5 196.5v446h131v-446q0 -76 39.5 -111t96.5 -35t96 35t39 111v446z" />
    <glyph glyph-name="Ucircumflex" unicode="&#xdb;" horiz-adv-x="653" 
d="M352 945l128 -154l-40 -38l-113 104l-113 -104l-40 38l127 154h51zM462 700h131v-446q0 -123 -76.5 -196t-189.5 -73q-114 0 -190.5 72.5t-76.5 196.5v446h131v-446q0 -76 39.5 -111t96.5 -35t96 35t39 111v446z" />
    <glyph glyph-name="Udieresis" unicode="&#xdc;" horiz-adv-x="653" 
d="M268 881v-112h-119v112h119zM506 881v-112h-120v112h120zM462 700h131v-446q0 -123 -76.5 -196t-189.5 -73q-114 0 -190.5 72.5t-76.5 196.5v446h131v-446q0 -76 39.5 -111t96.5 -35t96 35t39 111v446z" />
    <glyph glyph-name="Yacute" unicode="&#xdd;" horiz-adv-x="711" 
d="M517 920l-115 -159h-97l58 159h154zM686 700l-265 -415v-285h-131v285l-265 415h148l182 -292l182 292h149z" />
    <glyph glyph-name="Thorn" unicode="&#xde;" horiz-adv-x="645" 
d="M331 565q126 0 202.5 -59t76.5 -154q0 -101 -75.5 -157t-203.5 -56h-140v-139h-131v700h131v-135h140zM333 252q77 0 101 11q45 19 45 89q0 28 -8.5 47t-20.5 29.5t-33.5 16t-39 6.5t-44.5 1h-142v-200h142z" />
    <glyph glyph-name="germandbls" unicode="&#xdf;" horiz-adv-x="642" 
d="M316 700q111 0 181 -47.5t70 -139.5q0 -53 -33 -87t-76 -42q70 -9 109.5 -56t39.5 -118q0 -107 -70 -158.5t-211 -51.5h-57v113h59q70 0 109 21.5t39 82.5q0 105 -161 105h-46v105h46q67 0 94 18.5t27 62.5q0 40 -32.5 60t-87.5 20q-69 0 -98 -25t-29 -89v-474h-129v474
q0 226 256 226z" />
    <glyph glyph-name="agrave" unicode="&#xe0;" 
d="M147 740h154l58 -159h-97zM277 529q61 0 110 -30.5t54 -58.5v80h128v-520h-128v88q-5 -35 -53 -66.5t-111 -31.5q-94 0 -171.5 71.5t-77.5 198.5q0 64 23 117t60 85t80 49.5t86 17.5zM298 415q-60 0 -102.5 -41t-42.5 -114q0 -74 42.5 -115t102.5 -41q61 0 105 41t44 115
q0 73 -44 114t-105 41z" />
    <glyph glyph-name="aacute" unicode="&#xe1;" 
d="M463 740l-115 -159h-97l58 159h154zM277 529q61 0 110 -30.5t54 -58.5v80h128v-520h-128v88q-5 -35 -53 -66.5t-111 -31.5q-94 0 -171.5 71.5t-77.5 198.5q0 64 23 117t60 85t80 49.5t86 17.5zM298 415q-60 0 -102.5 -41t-42.5 -114q0 -74 42.5 -115t102.5 -41
q61 0 105 41t44 115q0 73 -44 114t-105 41z" />
    <glyph glyph-name="acircumflex" unicode="&#xe2;" 
d="M326 765l128 -154l-40 -38l-113 104l-113 -104l-40 38l127 154h51zM277 529q61 0 110 -30.5t54 -58.5v80h128v-520h-128v88q-5 -35 -53 -66.5t-111 -31.5q-94 0 -171.5 71.5t-77.5 198.5q0 64 23 117t60 85t80 49.5t86 17.5zM298 415q-60 0 -102.5 -41t-42.5 -114
q0 -74 42.5 -115t102.5 -41q61 0 105 41t44 115q0 73 -44 114t-105 41z" />
    <glyph glyph-name="atilde" unicode="&#xe3;" 
d="M222 744q38 0 97 -34.5t82 -34.5q16 0 30.5 7.5t14.5 17.5h50q0 -54 -30.5 -90.5t-83.5 -36.5q-39 0 -99 39.5t-86 39.5q-16 0 -30 -10t-13 -24h-49q0 54 30.5 90t86.5 36zM277 529q61 0 110 -30.5t54 -58.5v80h128v-520h-128v88q-5 -35 -53 -66.5t-111 -31.5
q-94 0 -171.5 71.5t-77.5 198.5q0 64 23 117t60 85t80 49.5t86 17.5zM298 415q-60 0 -102.5 -41t-42.5 -114q0 -74 42.5 -115t102.5 -41q61 0 105 41t44 115q0 73 -44 114t-105 41z" />
    <glyph glyph-name="adieresis" unicode="&#xe4;" 
d="M242 701v-112h-119v112h119zM480 701v-112h-120v112h120zM277 529q61 0 110 -30.5t54 -58.5v80h128v-520h-128v88q-5 -35 -53 -66.5t-111 -31.5q-94 0 -171.5 71.5t-77.5 198.5q0 64 23 117t60 85t80 49.5t86 17.5zM298 415q-60 0 -102.5 -41t-42.5 -114q0 -74 42.5 -115
t102.5 -41q61 0 105 41t44 115q0 73 -44 114t-105 41z" />
    <glyph glyph-name="aring" unicode="&#xe5;" 
d="M302 801q43 0 75 -32.5t32 -76.5t-31.5 -75.5t-75.5 -31.5q-46 0 -78.5 31.5t-32.5 75.5q0 45 32.5 77t78.5 32zM299 722q-11 0 -19 -8t-8 -20q0 -11 8 -19.5t19 -8.5t20 8.5t9 19.5q0 12 -8.5 20t-20.5 8zM277 529q61 0 110 -30.5t54 -58.5v80h128v-520h-128v88
q-5 -35 -53 -66.5t-111 -31.5q-94 0 -171.5 71.5t-77.5 198.5q0 64 23 117t60 85t80 49.5t86 17.5zM298 415q-60 0 -102.5 -41t-42.5 -114q0 -74 42.5 -115t102.5 -41q61 0 105 41t44 115q0 73 -44 114t-105 41z" />
    <glyph glyph-name="ae" unicode="&#xe6;" horiz-adv-x="997" 
d="M713 529q37 0 74.5 -11t73 -35.5t61.5 -60t38 -89.5t4 -119h-389q12 -56 52.5 -85.5t98.5 -29.5q46 0 74 9.5t61 30.5l71 -69q-75 -80 -210 -80q-83 0 -153 43v-33h-128v88q-5 -35 -53 -66.5t-111 -31.5q-94 0 -171.5 71.5t-77.5 198.5q0 64 23 117t60 85t80 49.5
t86 17.5q61 0 110 -30.5t54 -58.5v80h128v-34q67 43 144 43zM713 419q-46 0 -85 -29.5t-52 -82.5h275q-10 52 -50.5 82t-87.5 30zM298 104q61 0 105 41t44 115q0 73 -44 114t-105 41q-60 0 -102.5 -41t-42.5 -114q0 -74 42.5 -115t102.5 -41z" />
    <glyph glyph-name="ccedilla" unicode="&#xe7;" horiz-adv-x="553" 
d="M523 115q-55 -94 -161 -118l-44 -39q38 -7 66 -28.5t28 -55.5q0 -59 -61 -83t-147 -3l10 32q44 -9 70 9t26 45q0 22 -22 35.5t-48 -2.5l-39 36l33 56q-86 22 -146 88.5t-60 171.5q0 64 25.5 117.5t66 85.5t87 49.5t92.5 17.5q151 0 222 -125l-98 -46q-50 57 -123 57
q-58 0 -102.5 -41.5t-44.5 -114.5q0 -72 44.5 -113t102.5 -41q74 0 123 56z" />
    <glyph glyph-name="egrave" unicode="&#xe8;" horiz-adv-x="577" 
d="M350 581h-97l-115 159h154zM294 529q37 0 74.5 -11t73 -35.5t61.5 -60t38 -89.5t4 -119h-389q12 -56 52.5 -85.5t98.5 -29.5q46 0 74 9.5t61 30.5l71 -69q-75 -80 -210 -80q-50 0 -98 17.5t-88 49.5t-64.5 85t-24.5 117t25 117.5t64.5 85.5t85.5 49.5t91 17.5zM294 419
q-46 0 -85 -29.5t-52 -82.5h275q-10 52 -50.5 82t-87.5 30z" />
    <glyph glyph-name="eacute" unicode="&#xe9;" horiz-adv-x="577" 
d="M454 740l-115 -159h-97l58 159h154zM294 529q37 0 74.5 -11t73 -35.5t61.5 -60t38 -89.5t4 -119h-389q12 -56 52.5 -85.5t98.5 -29.5q46 0 74 9.5t61 30.5l71 -69q-75 -80 -210 -80q-50 0 -98 17.5t-88 49.5t-64.5 85t-24.5 117t25 117.5t64.5 85.5t85.5 49.5t91 17.5z
M294 419q-46 0 -85 -29.5t-52 -82.5h275q-10 52 -50.5 82t-87.5 30z" />
    <glyph glyph-name="ecircumflex" unicode="&#xea;" horiz-adv-x="577" 
d="M292 677l-113 -104l-40 38l127 154h51l128 -154l-40 -38zM294 529q37 0 74.5 -11t73 -35.5t61.5 -60t38 -89.5t4 -119h-389q12 -56 52.5 -85.5t98.5 -29.5q46 0 74 9.5t61 30.5l71 -69q-75 -80 -210 -80q-50 0 -98 17.5t-88 49.5t-64.5 85t-24.5 117t25 117.5t64.5 85.5
t85.5 49.5t91 17.5zM294 419q-46 0 -85 -29.5t-52 -82.5h275q-10 52 -50.5 82t-87.5 30z" />
    <glyph glyph-name="edieresis" unicode="&#xeb;" horiz-adv-x="577" 
d="M233 701v-112h-119v112h119zM471 701v-112h-120v112h120zM294 529q37 0 74.5 -11t73 -35.5t61.5 -60t38 -89.5t4 -119h-389q12 -56 52.5 -85.5t98.5 -29.5q46 0 74 9.5t61 30.5l71 -69q-75 -80 -210 -80q-50 0 -98 17.5t-88 49.5t-64.5 85t-24.5 117t25 117.5t64.5 85.5
t85.5 49.5t91 17.5zM294 419q-46 0 -85 -29.5t-52 -82.5h275q-10 52 -50.5 82t-87.5 30z" />
    <glyph glyph-name="igrave" unicode="&#xec;" horiz-adv-x="235" 
d="M-37 740h154l58 -159h-97zM182 520v-520h-129v520h129z" />
    <glyph glyph-name="iacute" unicode="&#xed;" horiz-adv-x="235" 
d="M279 740l-115 -159h-97l58 159h154zM182 520v-520h-129v520h129z" />
    <glyph glyph-name="icircumflex" unicode="&#xee;" horiz-adv-x="235" 
d="M142 765l128 -154l-40 -38l-113 104l-113 -104l-40 38l127 154h51zM182 520v-520h-129v520h129z" />
    <glyph glyph-name="idieresis" unicode="&#xef;" horiz-adv-x="235" 
d="M58 701v-112h-119v112h119zM296 701v-112h-120v112h120zM182 520v-520h-129v520h129z" />
    <glyph glyph-name="eth" unicode="&#xf0;" horiz-adv-x="591" 
d="M437 580q57 -82 79 -157t22 -171q0 -126 -75 -194t-185 -68q-103 0 -176.5 68.5t-73.5 193.5q0 130 68.5 199t181.5 69q49 0 68 -14l-39 53l-90 -15v62l50 8l-63 86h145l48 -65l95 16v-62zM278 103q56 0 92.5 36.5t36.5 112.5q0 81 -36 118t-93 37q-51 0 -85 -37.5
t-34 -117.5q0 -74 36 -111.5t83 -37.5z" />
    <glyph glyph-name="ntilde" unicode="&#xf1;" horiz-adv-x="600" 
d="M217 744q39 0 97 -34.5t82 -34.5q16 0 30.5 7.5t14.5 17.5h50q0 -54 -30.5 -90.5t-83.5 -36.5q-39 0 -99 39.5t-86 39.5q-16 0 -30 -10t-13 -24h-49q0 54 30.5 90t86.5 36zM356 528q80 0 137 -57t57 -171v-300h-128v292q0 63 -30 93.5t-76 30.5q-56 0 -89.5 -35
t-44.5 -69v-312h-129v520h129v-102q11 34 57.5 72t116.5 38z" />
    <glyph glyph-name="ograve" unicode="&#xf2;" horiz-adv-x="599" 
d="M145 740h154l58 -159h-97zM299 529q46 0 92.5 -17.5t87 -49.5t66 -85.5t25.5 -117.5q0 -65 -25.5 -118t-66 -85t-87 -49t-92.5 -17t-92.5 17t-87 49t-66 85t-25.5 118q0 64 25.5 117.5t66 85.5t87 49.5t92.5 17.5zM299 415q-57 0 -101.5 -42t-44.5 -114t44.5 -113.5
t101.5 -41.5t102 41.5t45 113.5q0 73 -44.5 114.5t-102.5 41.5z" />
    <glyph glyph-name="oacute" unicode="&#xf3;" horiz-adv-x="599" 
d="M461 740l-115 -159h-97l58 159h154zM299 529q46 0 92.5 -17.5t87 -49.5t66 -85.5t25.5 -117.5q0 -65 -25.5 -118t-66 -85t-87 -49t-92.5 -17t-92.5 17t-87 49t-66 85t-25.5 118q0 64 25.5 117.5t66 85.5t87 49.5t92.5 17.5zM299 415q-57 0 -101.5 -42t-44.5 -114
t44.5 -113.5t101.5 -41.5t102 41.5t45 113.5q0 73 -44.5 114.5t-102.5 41.5z" />
    <glyph glyph-name="ocircumflex" unicode="&#xf4;" horiz-adv-x="599" 
d="M324 765l128 -154l-40 -38l-113 104l-113 -104l-40 38l127 154h51zM299 529q46 0 92.5 -17.5t87 -49.5t66 -85.5t25.5 -117.5q0 -65 -25.5 -118t-66 -85t-87 -49t-92.5 -17t-92.5 17t-87 49t-66 85t-25.5 118q0 64 25.5 117.5t66 85.5t87 49.5t92.5 17.5zM299 415
q-57 0 -101.5 -42t-44.5 -114t44.5 -113.5t101.5 -41.5t102 41.5t45 113.5q0 73 -44.5 114.5t-102.5 41.5z" />
    <glyph glyph-name="otilde" unicode="&#xf5;" horiz-adv-x="599" 
d="M220 744q38 0 97 -34.5t82 -34.5q16 0 30.5 7.5t14.5 17.5h50q0 -54 -30.5 -90.5t-83.5 -36.5q-39 0 -99 39.5t-86 39.5q-16 0 -30 -10t-13 -24h-49q0 54 30.5 90t86.5 36zM299 529q46 0 92.5 -17.5t87 -49.5t66 -85.5t25.5 -117.5q0 -65 -25.5 -118t-66 -85t-87 -49
t-92.5 -17t-92.5 17t-87 49t-66 85t-25.5 118q0 64 25.5 117.5t66 85.5t87 49.5t92.5 17.5zM299 415q-57 0 -101.5 -42t-44.5 -114t44.5 -113.5t101.5 -41.5t102 41.5t45 113.5q0 73 -44.5 114.5t-102.5 41.5z" />
    <glyph glyph-name="odieresis" unicode="&#xf6;" horiz-adv-x="599" 
d="M240 701v-112h-119v112h119zM478 701v-112h-120v112h120zM299 529q46 0 92.5 -17.5t87 -49.5t66 -85.5t25.5 -117.5q0 -65 -25.5 -118t-66 -85t-87 -49t-92.5 -17t-92.5 17t-87 49t-66 85t-25.5 118q0 64 25.5 117.5t66 85.5t87 49.5t92.5 17.5zM299 415
q-57 0 -101.5 -42t-44.5 -114t44.5 -113.5t101.5 -41.5t102 41.5t45 113.5q0 73 -44.5 114.5t-102.5 41.5z" />
    <glyph glyph-name="divide" unicode="&#xf7;" horiz-adv-x="425" 
d="M211 360q-31 0 -52.5 21t-21.5 53t21.5 53t52.5 21t52.5 -21t21.5 -53t-21.5 -53t-52.5 -21zM380 329v-107h-335v107h335zM211 46q-31 0 -52.5 21t-21.5 53t21.5 53t52.5 21t52.5 -21t21.5 -53t-21.5 -53t-52.5 -21z" />
    <glyph glyph-name="oslash" unicode="&#xf8;" horiz-adv-x="599" 
d="M467 471q103 -79 103 -212q0 -65 -25.5 -118t-66 -85t-87 -49t-92.5 -17q-31 0 -60 7l-22 -47h-121l44 91q-112 75 -112 218q0 64 25.5 117.5t66 85.5t87 49.5t92.5 17.5q36 0 70 -10l28 59h121zM153 259q0 -64 39 -108l126 263q-6 1 -19 1q-57 0 -101.5 -42t-44.5 -114z
M299 104q57 0 102 41.5t45 113.5q0 60 -33 101l-122 -256h8z" />
    <glyph glyph-name="ugrave" unicode="&#xf9;" horiz-adv-x="595" 
d="M142 740h154l58 -159h-97zM239 -8q-80 0 -137 57t-57 171v300h128v-292q0 -63 30 -93.5t76 -30.5q56 0 89.5 35t44.5 69v312h129v-520h-129v102q-11 -34 -57.5 -72t-116.5 -38z" />
    <glyph glyph-name="uacute" unicode="&#xfa;" horiz-adv-x="595" 
d="M458 740l-115 -159h-97l58 159h154zM239 -8q-80 0 -137 57t-57 171v300h128v-292q0 -63 30 -93.5t76 -30.5q56 0 89.5 35t44.5 69v312h129v-520h-129v102q-11 -34 -57.5 -72t-116.5 -38z" />
    <glyph glyph-name="ucircumflex" unicode="&#xfb;" horiz-adv-x="595" 
d="M321 765l128 -154l-40 -38l-113 104l-113 -104l-40 38l127 154h51zM239 -8q-80 0 -137 57t-57 171v300h128v-292q0 -63 30 -93.5t76 -30.5q56 0 89.5 35t44.5 69v312h129v-520h-129v102q-11 -34 -57.5 -72t-116.5 -38z" />
    <glyph glyph-name="udieresis" unicode="&#xfc;" horiz-adv-x="595" 
d="M237 701v-112h-119v112h119zM475 701v-112h-120v112h120zM239 -8q-80 0 -137 57t-57 171v300h128v-292q0 -63 30 -93.5t76 -30.5q56 0 89.5 35t44.5 69v312h129v-520h-129v102q-11 -34 -57.5 -72t-116.5 -38z" />
    <glyph glyph-name="yacute" unicode="&#xfd;" horiz-adv-x="626" 
d="M475 740l-115 -159h-97l58 159h154zM471 521h130l-317 -711h-129l94 207l-224 504h131l157 -364z" />
    <glyph glyph-name="thorn" unicode="&#xfe;" 
d="M345 529q43 0 86 -17.5t80 -49.5t60 -85t23 -117q0 -127 -77.5 -198.5t-171.5 -71.5q-60 0 -107 29t-56 64v-273h-129v897h129v-263q10 28 57.5 56.5t105.5 28.5zM324 104q60 0 102.5 41t42.5 115q0 73 -42.5 114t-102.5 41q-61 0 -105 -41t-44 -114q0 -74 44 -115
t105 -41z" />
    <glyph glyph-name="ydieresis" unicode="&#xff;" horiz-adv-x="626" 
d="M254 701v-112h-119v112h119zM492 701v-112h-120v112h120zM471 521h130l-317 -711h-129l94 207l-224 504h131l157 -364z" />
    <glyph glyph-name="Amacron" unicode="&#x100;" horiz-adv-x="780" 
d="M578 880v-106h-376v106h376zM621 0l-58 135h-346l-58 -135h-139l312 700h117l311 -700h-139zM263 242h254l-127 297z" />
    <glyph glyph-name="amacron" unicode="&#x101;" 
d="M489 700v-106h-376v106h376zM277 529q61 0 110 -30.5t54 -58.5v80h128v-520h-128v88q-5 -35 -53 -66.5t-111 -31.5q-94 0 -171.5 71.5t-77.5 198.5q0 64 23 117t60 85t80 49.5t86 17.5zM298 415q-60 0 -102.5 -41t-42.5 -114q0 -74 42.5 -115t102.5 -41q61 0 105 41
t44 115q0 73 -44 114t-105 41z" />
    <glyph glyph-name="Abreve" unicode="&#x102;" horiz-adv-x="780" 
d="M390 753q-76 0 -117 47.5t-40 109.5h80q3 -29 23 -49.5t54 -20.5t54.5 21t23.5 49h80q0 -62 -41 -109.5t-117 -47.5zM621 0l-58 135h-346l-58 -135h-139l312 700h117l311 -700h-139zM263 242h254l-127 297z" />
    <glyph glyph-name="abreve" unicode="&#x103;" 
d="M459 730q0 -62 -41 -109.5t-117 -47.5t-117 47.5t-40 109.5h80q3 -29 23 -49.5t54 -20.5t54.5 21t23.5 49h80zM277 529q61 0 110 -30.5t54 -58.5v80h128v-520h-128v88q-5 -35 -53 -66.5t-111 -31.5q-94 0 -171.5 71.5t-77.5 198.5q0 64 23 117t60 85t80 49.5t86 17.5z
M298 415q-60 0 -102.5 -41t-42.5 -114q0 -74 42.5 -115t102.5 -41q61 0 105 41t44 115q0 73 -44 114t-105 41z" />
    <glyph glyph-name="Aogonek" unicode="&#x104;" horiz-adv-x="780" 
d="M607 -108q0 -27 28 -36.5t52 2.5l29 -56q-34 -19 -88 -21t-99.5 23t-45.5 76q0 80 138 120l-58 135h-346l-58 -135h-139l312 700h117l311 -700q-153 -46 -153 -108zM263 242h254l-127 297z" />
    <glyph glyph-name="aogonek" unicode="&#x105;" horiz-adv-x="629" 
d="M434 -104q0 -27 28.5 -38.5t52.5 0.5l28 -56q-33 -19 -87 -20.5t-99.5 22.5t-45.5 72q0 81 135 124h-5v88q-5 -35 -53 -66.5t-111 -31.5q-94 0 -171.5 71.5t-77.5 198.5q0 64 23 117t60 85t80 49.5t86 17.5q61 0 110 -30.5t54 -58.5v80h128v-520h7q-82 -29 -112 -50.5
t-30 -53.5zM298 104q61 0 105 41t44 115q0 73 -44 114t-105 41q-60 0 -102.5 -41t-42.5 -114q0 -74 42.5 -115t102.5 -41z" />
    <glyph glyph-name="Cacute" unicode="&#x106;" horiz-adv-x="681" 
d="M543 920l-115 -159h-97l58 159h154zM646 75q-97 -85 -238 -85q-148 0 -255.5 102.5t-107.5 257.5t107.5 257.5t255.5 102.5q138 0 234 -83l-79 -90q-67 50 -147 50q-99 0 -167 -67.5t-68 -169.5t68 -169.5t167 -67.5q84 0 151 54z" />
    <glyph glyph-name="cacute" unicode="&#x107;" horiz-adv-x="553" 
d="M445 740l-115 -159h-97l58 159h154zM299 529q151 0 222 -125l-98 -46q-50 57 -123 57q-58 0 -102.5 -41.5t-44.5 -114.5q0 -72 44.5 -113t102.5 -41q74 0 123 56l100 -46q-74 -124 -224 -124q-63 0 -123 28t-104 91t-44 149q0 64 25.5 117.5t66 85.5t87 49.5t92.5 17.5z
" />
    <glyph glyph-name="Cdotaccent" unicode="&#x10a;" horiz-adv-x="681" 
d="M441 881v-112h-119v112h119zM646 75q-97 -85 -238 -85q-148 0 -255.5 102.5t-107.5 257.5t107.5 257.5t255.5 102.5q138 0 234 -83l-79 -90q-67 50 -147 50q-99 0 -167 -67.5t-68 -169.5t68 -169.5t167 -67.5q84 0 151 54z" />
    <glyph glyph-name="cdotaccent" unicode="&#x10b;" horiz-adv-x="553" 
d="M343 701v-112h-119v112h119zM299 529q151 0 222 -125l-98 -46q-50 57 -123 57q-58 0 -102.5 -41.5t-44.5 -114.5q0 -72 44.5 -113t102.5 -41q74 0 123 56l100 -46q-74 -124 -224 -124q-63 0 -123 28t-104 91t-44 149q0 64 25.5 117.5t66 85.5t87 49.5t92.5 17.5z" />
    <glyph glyph-name="Ccaron" unicode="&#x10c;" horiz-adv-x="681" 
d="M406 753h-51l-127 154l40 38l113 -104l113 104l40 -38zM646 75q-97 -85 -238 -85q-148 0 -255.5 102.5t-107.5 257.5t107.5 257.5t255.5 102.5q138 0 234 -83l-79 -90q-67 50 -147 50q-99 0 -167 -67.5t-68 -169.5t68 -169.5t167 -67.5q84 0 151 54z" />
    <glyph glyph-name="ccaron" unicode="&#x10d;" horiz-adv-x="553" 
d="M308 573h-51l-127 154l40 38l113 -104l113 104l40 -38zM299 529q151 0 222 -125l-98 -46q-50 57 -123 57q-58 0 -102.5 -41.5t-44.5 -114.5q0 -72 44.5 -113t102.5 -41q74 0 123 56l100 -46q-74 -124 -224 -124q-63 0 -123 28t-104 91t-44 149q0 64 25.5 117.5t66 85.5
t87 49.5t92.5 17.5z" />
    <glyph glyph-name="Dcaron" unicode="&#x10e;" horiz-adv-x="694" 
d="M372 753h-51l-127 154l40 38l113 -104l113 104l40 -38zM300 700q149 0 251.5 -101t102.5 -246q0 -149 -102 -251t-252 -102h-240v700h240zM299 124q103 0 162.5 65.5t59.5 163.5q0 94 -59.5 158.5t-162.5 64.5h-108v-452h108z" />
    <glyph glyph-name="dcaron" unicode="&#x10f;" horiz-adv-x="831" 
d="M667 740h154l-115 -159h-97zM433 444v263h129v-707h-128v88q-5 -35 -53 -66.5t-111 -31.5q-94 0 -171.5 71.5t-77.5 198.5q0 64 23 117t60 85t80 49.5t86 17.5q58 0 105.5 -28.5t57.5 -56.5zM291 104q61 0 105 41t44 115q0 73 -44 114t-105 41q-60 0 -102.5 -41
t-42.5 -114q0 -74 42.5 -115t102.5 -41z" />
    <glyph glyph-name="Dcroat" unicode="&#x110;" horiz-adv-x="770" 
d="M376 700q149 0 251.5 -101t102.5 -246q0 -149 -102 -251t-252 -102h-240v290h-58v107h58v303h240zM375 124q103 0 162.5 65.5t59.5 163.5q0 94 -59.5 158.5t-162.5 64.5h-108v-179h121v-107h-121v-166h108z" />
    <glyph glyph-name="dcroat" unicode="&#x111;" horiz-adv-x="650" 
d="M650 663v-106h-88v-557h-128v88q-5 -35 -53 -66.5t-111 -31.5q-94 0 -171.5 71.5t-77.5 198.5q0 64 23 117t60 85t80 49.5t86 17.5q58 0 105.5 -28.5t57.5 -56.5v113h-159v106h159v44h129v-44h88zM291 104q61 0 105 41t44 115q0 73 -44 114t-105 41q-60 0 -102.5 -41
t-42.5 -114q0 -74 42.5 -115t102.5 -41z" />
    <glyph glyph-name="Emacron" unicode="&#x112;" horiz-adv-x="541" 
d="M471 880v-106h-376v106h376zM191 121h305v-121h-436v700h427v-121h-296v-168h225v-118h-225v-172z" />
    <glyph glyph-name="emacron" unicode="&#x113;" horiz-adv-x="577" 
d="M480 700v-106h-376v106h376zM294 529q37 0 74.5 -11t73 -35.5t61.5 -60t38 -89.5t4 -119h-389q12 -56 52.5 -85.5t98.5 -29.5q46 0 74 9.5t61 30.5l71 -69q-75 -80 -210 -80q-50 0 -98 17.5t-88 49.5t-64.5 85t-24.5 117t25 117.5t64.5 85.5t85.5 49.5t91 17.5zM294 419
q-46 0 -85 -29.5t-52 -82.5h275q-10 52 -50.5 82t-87.5 30z" />
    <glyph glyph-name="Edotaccent" unicode="&#x116;" horiz-adv-x="541" 
d="M343 881v-112h-119v112h119zM191 121h305v-121h-436v700h427v-121h-296v-168h225v-118h-225v-172z" />
    <glyph glyph-name="edotaccent" unicode="&#x117;" horiz-adv-x="577" 
d="M352 701v-112h-119v112h119zM294 529q37 0 74.5 -11t73 -35.5t61.5 -60t38 -89.5t4 -119h-389q12 -56 52.5 -85.5t98.5 -29.5q46 0 74 9.5t61 30.5l71 -69q-75 -80 -210 -80q-50 0 -98 17.5t-88 49.5t-64.5 85t-24.5 117t25 117.5t64.5 85.5t85.5 49.5t91 17.5zM294 419
q-46 0 -85 -29.5t-52 -82.5h275q-10 52 -50.5 82t-87.5 30z" />
    <glyph glyph-name="Eogonek" unicode="&#x118;" horiz-adv-x="541" 
d="M191 121h305v-121h-1q-141 -45 -141 -108q0 -27 28 -36.5t52 2.5l28 -56q-33 -19 -87 -21t-99.5 23t-45.5 76q0 80 143 120h-313v700h427v-121h-296v-168h225v-118h-225v-172z" />
    <glyph glyph-name="eogonek" unicode="&#x119;" horiz-adv-x="577" 
d="M294 529q37 0 74.5 -11t73 -35.5t61.5 -60t38 -89.5t4 -119h-389q12 -56 52.5 -85.5t98.5 -29.5q46 0 74 9.5t61 30.5l71 -69q-49 -52 -121 -70h6q-82 -29 -111.5 -50.5t-29.5 -53.5q0 -27 28 -38.5t52 0.5l28 -56q-33 -19 -87 -20.5t-99.5 22.5t-45.5 72q0 75 119 119
q-93 16 -158.5 85t-65.5 179q0 64 25 117.5t64.5 85.5t85.5 49.5t91 17.5zM294 419q-46 0 -85 -29.5t-52 -82.5h275q-10 52 -50.5 82t-87.5 30z" />
    <glyph glyph-name="Ecaron" unicode="&#x11a;" horiz-adv-x="541" 
d="M308 753h-51l-127 154l40 38l113 -104l113 104l40 -38zM191 121h305v-121h-436v700h427v-121h-296v-168h225v-118h-225v-172z" />
    <glyph glyph-name="ecaron" unicode="&#x11b;" horiz-adv-x="577" 
d="M317 573h-51l-127 154l40 38l113 -104l113 104l40 -38zM294 529q37 0 74.5 -11t73 -35.5t61.5 -60t38 -89.5t4 -119h-389q12 -56 52.5 -85.5t98.5 -29.5q46 0 74 9.5t61 30.5l71 -69q-75 -80 -210 -80q-50 0 -98 17.5t-88 49.5t-64.5 85t-24.5 117t25 117.5t64.5 85.5
t85.5 49.5t91 17.5zM294 419q-46 0 -85 -29.5t-52 -82.5h275q-10 52 -50.5 82t-87.5 30z" />
    <glyph glyph-name="Gbreve" unicode="&#x11e;" horiz-adv-x="767" 
d="M411 753q-76 0 -117 47.5t-40 109.5h80q3 -29 23 -49.5t54 -20.5t54.5 21t23.5 49h80q0 -62 -41 -109.5t-117 -47.5zM720 374q11 -87 -10 -160.5t-65.5 -121.5t-106 -75t-131.5 -27q-150 0 -256 102t-106 258q0 155 107 257.5t255 102.5q138 0 234 -83l-79 -90
q-67 50 -147 50q-99 0 -166.5 -67t-67.5 -170t65 -170t163 -67q165 0 191 152h-175v109h295z" />
    <glyph glyph-name="gbreve" unicode="&#x11f;" 
d="M324 573q-76 0 -117 47.5t-40 109.5h80q3 -29 23 -49.5t54 -20.5t54.5 21t23.5 49h80q0 -62 -41 -109.5t-117 -47.5zM441 520h128v-520q0 -45 -16.5 -81.5t-43.5 -59t-62 -38t-69.5 -21.5t-69.5 -6q-91 0 -144 31v106q51 -30 144 -30q65 0 99 29t34 70v88
q-5 -35 -53 -66.5t-111 -31.5q-94 0 -171.5 71.5t-77.5 198.5q0 64 23 117t60 85t80 49.5t86 17.5q61 0 110 -30.5t54 -58.5v80zM298 104q61 0 105 41t44 115q0 73 -44 114t-105 41q-60 0 -102.5 -41t-42.5 -114q0 -74 42.5 -115t102.5 -41z" />
    <glyph glyph-name="Gdotaccent" unicode="&#x120;" horiz-adv-x="767" 
d="M471 881v-112h-119v112h119zM720 374q11 -87 -10 -160.5t-65.5 -121.5t-106 -75t-131.5 -27q-150 0 -256 102t-106 258q0 155 107 257.5t255 102.5q138 0 234 -83l-79 -90q-67 50 -147 50q-99 0 -166.5 -67t-67.5 -170t65 -170t163 -67q165 0 191 152h-175v109h295z" />
    <glyph glyph-name="gdotaccent" unicode="&#x121;" 
d="M384 701v-112h-119v112h119zM441 520h128v-520q0 -45 -16.5 -81.5t-43.5 -59t-62 -38t-69.5 -21.5t-69.5 -6q-91 0 -144 31v106q51 -30 144 -30q65 0 99 29t34 70v88q-5 -35 -53 -66.5t-111 -31.5q-94 0 -171.5 71.5t-77.5 198.5q0 64 23 117t60 85t80 49.5t86 17.5
q61 0 110 -30.5t54 -58.5v80zM298 104q61 0 105 41t44 115q0 73 -44 114t-105 41q-60 0 -102.5 -41t-42.5 -114q0 -74 42.5 -115t102.5 -41z" />
    <glyph glyph-name="Gcommaaccent" unicode="&#x122;" horiz-adv-x="767" 
d="M720 374q11 -87 -10 -160.5t-65.5 -121.5t-106 -75t-131.5 -27q-150 0 -256 102t-106 258q0 155 107 257.5t255 102.5q138 0 234 -83l-79 -90q-67 50 -147 50q-99 0 -166.5 -67t-67.5 -170t65 -170t163 -67q165 0 191 152h-175v109h295zM260 -256l54 228h169l-108 -228
h-115z" />
    <glyph glyph-name="gcommaaccent" unicode="&#x123;" 
d="M430 801l-54 -228h-169l108 228h115zM441 520h128v-520q0 -45 -16.5 -81.5t-43.5 -59t-62 -38t-69.5 -21.5t-69.5 -6q-91 0 -144 31v106q51 -30 144 -30q65 0 99 29t34 70v88q-5 -35 -53 -66.5t-111 -31.5q-94 0 -171.5 71.5t-77.5 198.5q0 64 23 117t60 85t80 49.5
t86 17.5q61 0 110 -30.5t54 -58.5v80zM298 104q61 0 105 41t44 115q0 73 -44 114t-105 41q-60 0 -102.5 -41t-42.5 -114q0 -74 42.5 -115t102.5 -41z" />
    <glyph glyph-name="Hbar" unicode="&#x126;" horiz-adv-x="682" 
d="M491 700h131v-700h-131v288h-300v-288h-131v700h131v-92h300v92zM191 409h300v78h-300v-78z" />
    <glyph glyph-name="hbar" unicode="&#x127;" horiz-adv-x="611" 
d="M367 528q80 0 137 -57t57 -171v-300h-128v292q0 63 -30 93.5t-76 30.5q-56 0 -89.5 -35t-44.5 -69v-312h-129v558h-64v70h64v79h129v-79h128v-70h-128v-140q11 34 57.5 72t116.5 38z" />
    <glyph glyph-name="Imacron" unicode="&#x12a;" horiz-adv-x="251" 
d="M314 880v-106h-376v106h376zM191 700v-700h-131v700h131z" />
    <glyph glyph-name="imacron" unicode="&#x12b;" horiz-adv-x="235" 
d="M305 700v-106h-376v106h376zM182 520v-520h-129v520h129z" />
    <glyph glyph-name="Iogonek" unicode="&#x12e;" horiz-adv-x="255" 
d="M195 0q-148 -45 -148 -108q0 -27 28 -36.5t52 2.5l28 -56q-33 -19 -87 -21t-99.5 23t-45.5 76q0 79 141 120v700h131v-700z" />
    <glyph glyph-name="iogonek" unicode="&#x12f;" horiz-adv-x="238" 
d="M177 701v-112h-119v112h119zM53 520h129v-520h-7q-141 -45 -141 -108q0 -27 28 -36.5t52 2.5l28 -56q-33 -19 -87 -21t-99.5 23t-45.5 76q0 80 143 120v520z" />
    <glyph glyph-name="Idotaccent" unicode="&#x130;" horiz-adv-x="251" 
d="M186 881v-112h-119v112h119zM191 700v-700h-131v700h131z" />
    <glyph glyph-name="dotlessi" unicode="&#x131;" horiz-adv-x="235" 
d="M182 520v-520h-129v520h129z" />
    <glyph glyph-name="IJ" unicode="&#x132;" horiz-adv-x="790" 
d="M191 700v-700h-131v700h131zM730 700v-464q0 -53 -15 -96t-39.5 -70.5t-56.5 -46.5t-64.5 -27t-64.5 -8q-137 0 -209 96l79 96q52 -66 124 -66q45 0 80 30.5t35 108.5v447h131z" />
    <glyph glyph-name="ij" unicode="&#x133;" horiz-adv-x="492" 
d="M182 707v-123h-129v123h129zM439 707v-123h-129v123h129zM182 520v-520h-129v520h129zM439 520v-566q0 -81 -40 -120.5t-111 -39.5q-65 0 -108 26v108q38 -18 73 -18q57 0 57 60v550h129z" />
    <glyph glyph-name="Kcommaaccent" unicode="&#x136;" horiz-adv-x="691" 
d="M366 397l300 -397h-152l-230 305l-89 -100v-205h-135v700h135v-320l278 320h162zM237 -256l54 228h169l-108 -228h-115z" />
    <glyph glyph-name="kcommaaccent" unicode="&#x137;" horiz-adv-x="588" 
d="M310 298l258 -298h-148l-190 214l-48 -50v-164h-129v707h129v-386l185 199h154zM162 -256l54 228h169l-108 -228h-115z" />
    <glyph glyph-name="Lacute" unicode="&#x139;" horiz-adv-x="515" 
d="M294 918l-115 -159h-97l58 159h154zM191 121h284v-121h-415v700h131v-579z" />
    <glyph glyph-name="lacute" unicode="&#x13a;" horiz-adv-x="235" 
d="M280 927l-115 -159h-97l58 159h154zM182 707v-707h-129v707h129z" />
    <glyph glyph-name="Lcommaaccent" unicode="&#x13b;" horiz-adv-x="515" 
d="M191 121h284v-121h-415v700h131v-579zM129 -256l54 228h169l-108 -228h-115z" />
    <glyph glyph-name="lcommaaccent" unicode="&#x13c;" horiz-adv-x="235" 
d="M182 707v-707h-129v707h129zM-17 -256l54 228h169l-108 -228h-115z" />
    <glyph glyph-name="Lcaron" unicode="&#x13d;" horiz-adv-x="515" 
d="M491 740l-89 -257h-111l90 257h110zM191 700v-579h284v-121h-415v700h131z" />
    <glyph glyph-name="lcaron" unicode="&#x13e;" horiz-adv-x="460" 
d="M182 707v-707h-129v707h129zM240 443l90 257h110l-89 -257h-111z" />
    <glyph glyph-name="Ldot" unicode="&#x13f;" horiz-adv-x="515" 
d="M191 121h284v-121h-415v700h131v-579zM396 291q-31 0 -52.5 21t-21.5 53t21.5 53t52.5 21t52.5 -21t21.5 -53t-21.5 -53t-52.5 -21z" />
    <glyph glyph-name="ldot" unicode="&#x140;" horiz-adv-x="421" 
d="M182 707v-707h-129v707h129zM321 289q-31 0 -52.5 21t-21.5 53t21.5 53t52.5 21t52.5 -21t21.5 -53t-21.5 -53t-52.5 -21z" />
    <glyph glyph-name="Lslash" unicode="&#x141;" horiz-adv-x="571" 
d="M247 121h284v-121h-415v204l-61 -64v133l61 64v363h131v-225l91 96h1v-132l-92 -97v-221z" />
    <glyph glyph-name="lslash" unicode="&#x142;" horiz-adv-x="321" 
d="M291 561v-133l-65 -68v-360h-129v224l-67 -71v134l67 71v349h129v-213l64 67h1z" />
    <glyph glyph-name="Nacute" unicode="&#x143;" horiz-adv-x="716" 
d="M521 920l-115 -159h-97l58 159h154zM525 700h131v-700h-100l-365 469v-469h-131v700h101l364 -470v470z" />
    <glyph glyph-name="nacute" unicode="&#x144;" horiz-adv-x="600" 
d="M458 740l-115 -159h-97l58 159h154zM356 528q80 0 137 -57t57 -171v-300h-128v292q0 63 -30 93.5t-76 30.5q-56 0 -89.5 -35t-44.5 -69v-312h-129v520h129v-102q11 34 57.5 72t116.5 38z" />
    <glyph glyph-name="Ncommaaccent" unicode="&#x145;" horiz-adv-x="716" 
d="M525 700h131v-700h-100l-365 469v-469h-131v700h101l364 -470v470zM224 -256l54 228h169l-108 -228h-115z" />
    <glyph glyph-name="ncommaaccent" unicode="&#x146;" horiz-adv-x="600" 
d="M356 528q80 0 137 -57t57 -171v-300h-128v292q0 63 -30 93.5t-76 30.5q-56 0 -89.5 -35t-44.5 -69v-312h-129v520h129v-102q11 34 57.5 72t116.5 38zM161 -256l54 228h169l-108 -228h-115z" />
    <glyph glyph-name="Ncaron" unicode="&#x147;" horiz-adv-x="716" 
d="M384 753h-51l-127 154l40 38l113 -104l113 104l40 -38zM525 700h131v-700h-100l-365 469v-469h-131v700h101l364 -470v470z" />
    <glyph glyph-name="ncaron" unicode="&#x148;" horiz-adv-x="600" 
d="M321 573h-51l-127 154l40 38l113 -104l113 104l40 -38zM356 528q80 0 137 -57t57 -171v-300h-128v292q0 63 -30 93.5t-76 30.5q-56 0 -89.5 -35t-44.5 -69v-312h-129v520h129v-102q11 34 57.5 72t116.5 38z" />
    <glyph glyph-name="Eng" unicode="&#x14a;" horiz-adv-x="716" 
d="M523 700h133v-662q0 -53 -15 -96t-39.5 -70.5t-56.5 -46.5t-64.5 -27t-64.5 -8q-137 0 -209 96l79 96q52 -66 124 -66q43 0 77 27t38 97l-334 422v-462h-131v700h101l364 -462z" />
    <glyph glyph-name="eng" unicode="&#x14b;" horiz-adv-x="600" 
d="M356 528q80 0 137 -57t57 -171v-351q0 -78 -40 -116.5t-110 -38.5q-64 0 -109 26v125q38 -20 78 -20q53 0 53 63v304q0 63 -30 93.5t-76 30.5q-56 0 -89.5 -35t-44.5 -69v-312h-129v520h129v-102q11 34 57.5 72t116.5 38z" />
    <glyph glyph-name="Omacron" unicode="&#x14c;" horiz-adv-x="814" 
d="M593 880v-106h-376v106h376zM407 710q148 0 255 -102.5t107 -257.5t-107 -257.5t-255 -102.5t-255 102.5t-107 257.5t107 257.5t255 102.5zM407 113q93 0 159 67.5t66 169.5t-66 169.5t-159 67.5q-94 0 -160 -67.5t-66 -169.5t66 -169.5t160 -67.5z" />
    <glyph glyph-name="omacron" unicode="&#x14d;" horiz-adv-x="599" 
d="M487 700v-106h-376v106h376zM299 529q46 0 92.5 -17.5t87 -49.5t66 -85.5t25.5 -117.5q0 -65 -25.5 -118t-66 -85t-87 -49t-92.5 -17t-92.5 17t-87 49t-66 85t-25.5 118q0 64 25.5 117.5t66 85.5t87 49.5t92.5 17.5zM299 415q-57 0 -101.5 -42t-44.5 -114t44.5 -113.5
t101.5 -41.5t102 41.5t45 113.5q0 73 -44.5 114.5t-102.5 41.5z" />
    <glyph glyph-name="Ohungarumlaut" unicode="&#x150;" horiz-adv-x="814" 
d="M466 920l-115 -159h-97l58 159h154zM677 920l-115 -159h-97l58 159h154zM407 710q148 0 255 -102.5t107 -257.5t-107 -257.5t-255 -102.5t-255 102.5t-107 257.5t107 257.5t255 102.5zM407 113q93 0 159 67.5t66 169.5t-66 169.5t-159 67.5q-94 0 -160 -67.5t-66 -169.5
t66 -169.5t160 -67.5z" />
    <glyph glyph-name="ohungarumlaut" unicode="&#x151;" horiz-adv-x="599" 
d="M360 740l-115 -159h-97l58 159h154zM571 740l-115 -159h-97l58 159h154zM299 529q46 0 92.5 -17.5t87 -49.5t66 -85.5t25.5 -117.5q0 -65 -25.5 -118t-66 -85t-87 -49t-92.5 -17t-92.5 17t-87 49t-66 85t-25.5 118q0 64 25.5 117.5t66 85.5t87 49.5t92.5 17.5zM299 415
q-57 0 -101.5 -42t-44.5 -114t44.5 -113.5t101.5 -41.5t102 41.5t45 113.5q0 73 -44.5 114.5t-102.5 41.5z" />
    <glyph glyph-name="OE" unicode="&#x152;" horiz-adv-x="1118" 
d="M768 121h305v-121h-436v70q-100 -80 -230 -80q-148 0 -255 102.5t-107 257.5t107 257.5t255 102.5q130 0 230 -80v70h427v-121h-296v-168h225v-118h-225v-172zM407 113q93 0 159 67.5t66 169.5t-66 169.5t-159 67.5q-94 0 -160 -67.5t-66 -169.5t66 -169.5t160 -67.5z
" />
    <glyph glyph-name="oe" unicode="&#x153;" horiz-adv-x="996" 
d="M713 529q37 0 74.5 -11t73 -35.5t61.5 -60t38 -89.5t4 -119h-389q12 -56 52.5 -85.5t98.5 -29.5q46 0 74 9.5t61 30.5l71 -69q-75 -80 -210 -80q-60 0 -117.5 24.5t-96.5 70.5q-40 -46 -96.5 -70.5t-112.5 -24.5q-46 0 -92.5 17t-87 49t-66 85t-25.5 118q0 64 25.5 117.5
t66 85.5t87 49.5t92.5 17.5q55 0 112 -25t97 -71q39 46 94.5 71t110.5 25zM713 419q-46 0 -85 -29.5t-52 -82.5h275q-10 52 -50.5 82t-87.5 30zM299 104q57 0 102 41.5t45 113.5q0 73 -44.5 114.5t-102.5 41.5q-57 0 -101.5 -42t-44.5 -114t44.5 -113.5t101.5 -41.5z" />
    <glyph glyph-name="Racute" unicode="&#x154;" horiz-adv-x="632" 
d="M455 920l-115 -159h-97l58 159h154zM602 0h-139l-156 238h-6h-110v-238h-131v700h241q117 0 186.5 -65t69.5 -170q0 -72 -34 -125t-96 -79zM191 579v-228h103q62 0 97 28t35 86q0 57 -35 85.5t-97 28.5h-103z" />
    <glyph glyph-name="racute" unicode="&#x155;" horiz-adv-x="430" 
d="M377 740l-115 -159h-97l58 159h154zM364 528q24 0 36 -2v-123q-11 2 -32 2q-74 0 -126.5 -48t-59.5 -126v-231h-129v520h129v-131q17 61 65 100t117 39z" />
    <glyph glyph-name="Rcommaaccent" unicode="&#x156;" horiz-adv-x="632" 
d="M427 261l175 -261h-139l-156 238h-6h-110v-238h-131v700h241q117 0 186.5 -65t69.5 -170q0 -72 -34 -125t-96 -79zM191 579v-228h103q62 0 97 28t35 86q0 57 -35 85.5t-97 28.5h-103zM178 -256l54 228h169l-108 -228h-115z" />
    <glyph glyph-name="rcommaaccent" unicode="&#x157;" horiz-adv-x="430" 
d="M364 528q24 0 36 -2v-123q-11 2 -32 2q-74 0 -126.5 -48t-59.5 -126v-231h-129v520h129v-131q17 61 65 100t117 39zM-20 -256l54 228h169l-108 -228h-115z" />
    <glyph glyph-name="Rcaron" unicode="&#x158;" horiz-adv-x="632" 
d="M318 753h-51l-127 154l40 38l113 -104l113 104l40 -38zM602 0h-139l-156 238h-6h-110v-238h-131v700h241q117 0 186.5 -65t69.5 -170q0 -72 -34 -125t-96 -79zM191 579v-228h103q62 0 97 28t35 86q0 57 -35 85.5t-97 28.5h-103z" />
    <glyph glyph-name="rcaron" unicode="&#x159;" horiz-adv-x="430" 
d="M240 573h-51l-127 154l40 38l113 -104l113 104l40 -38zM364 528q24 0 36 -2v-123q-11 2 -32 2q-74 0 -126.5 -48t-59.5 -126v-231h-129v520h129v-131q17 61 65 100t117 39z" />
    <glyph glyph-name="Sacute" unicode="&#x15a;" horiz-adv-x="573" 
d="M448 920l-115 -159h-97l58 159h154zM287 712q82 0 142 -42.5t90 -102.5l-97 -57q-58 86 -135 86q-42 0 -69.5 -23t-27.5 -58q0 -30 20 -50t66 -37l48 -18q112 -40 163 -92t51 -127q0 -95 -75.5 -150.5t-172.5 -55.5q-92 0 -161 48.5t-94 123.5l101 53q47 -106 154 -106
q49 0 80.5 23t31.5 66q0 39 -26 62t-88 46l-45 16q-89 32 -136 78t-47 126q0 82 66 136.5t161 54.5z" />
    <glyph glyph-name="sacute" unicode="&#x15b;" horiz-adv-x="458" 
d="M383 740l-115 -159h-97l58 159h154zM303 371q-25 55 -75 55q-25 0 -42 -13t-17 -34q0 -35 50 -54l61 -21q35 -13 57 -23.5t45.5 -28t34.5 -43t11 -59.5q0 -76 -58 -118.5t-143 -42.5q-79 0 -132.5 38t-69.5 106l102 31q11 -32 37 -52.5t63 -20.5q32 0 54 16.5t22 40.5
q0 34 -54 55l-60 21q-144 52 -144 156q0 67 52 108t126 41q69 0 117 -34.5t70 -94.5z" />
    <glyph glyph-name="Scedilla" unicode="&#x15e;" horiz-adv-x="573" 
d="M538 191q0 -82 -57.5 -135t-140.5 -67l-36 -32q38 -7 66 -28.5t28 -55.5q0 -59 -61 -83t-147 -3l10 32q44 -9 70 9t26 45q0 22 -22 35.5t-48 -2.5l-39 36l30 52q-66 16 -114.5 60t-67.5 103l101 53q47 -106 154 -106q49 0 80.5 23t31.5 66q0 39 -26 62t-88 46l-45 16
q-89 32 -136 78t-47 126q0 82 66 136.5t161 54.5q82 0 142 -42.5t90 -102.5l-97 -57q-58 86 -135 86q-42 0 -69.5 -23t-27.5 -58q0 -30 20 -50t66 -37l48 -18q112 -40 163 -92t51 -127z" />
    <glyph glyph-name="scedilla" unicode="&#x15f;" horiz-adv-x="458" 
d="M428 150q0 -60 -37 -99.5t-97 -53.5l-41 -37q38 -7 66 -28.5t28 -55.5q0 -59 -61 -83t-147 -3l10 32q44 -9 70 9t26 45q0 22 -22 35.5t-48 -2.5l-39 36l30 51q-114 26 -141 137l102 31q11 -32 37 -52.5t63 -20.5q32 0 54 16.5t22 40.5q0 34 -54 55l-60 21
q-144 52 -144 156q0 67 52 108t126 41q69 0 117 -34.5t70 -94.5l-107 -29q-25 55 -75 55q-25 0 -42 -13t-17 -34q0 -35 50 -54l61 -21q35 -13 57 -23.5t45.5 -28t34.5 -43t11 -59.5z" />
    <glyph glyph-name="Scaron" unicode="&#x160;" horiz-adv-x="573" 
d="M311 753h-51l-127 154l40 38l113 -104l113 104l40 -38zM287 712q82 0 142 -42.5t90 -102.5l-97 -57q-58 86 -135 86q-42 0 -69.5 -23t-27.5 -58q0 -30 20 -50t66 -37l48 -18q112 -40 163 -92t51 -127q0 -95 -75.5 -150.5t-172.5 -55.5q-92 0 -161 48.5t-94 123.5l101 53
q47 -106 154 -106q49 0 80.5 23t31.5 66q0 39 -26 62t-88 46l-45 16q-89 32 -136 78t-47 126q0 82 66 136.5t161 54.5z" />
    <glyph glyph-name="scaron" unicode="&#x161;" horiz-adv-x="458" 
d="M246 573h-51l-127 154l40 38l113 -104l113 104l40 -38zM303 371q-25 55 -75 55q-25 0 -42 -13t-17 -34q0 -35 50 -54l61 -21q35 -13 57 -23.5t45.5 -28t34.5 -43t11 -59.5q0 -76 -58 -118.5t-143 -42.5q-79 0 -132.5 38t-69.5 106l102 31q11 -32 37 -52.5t63 -20.5
q32 0 54 16.5t22 40.5q0 34 -54 55l-60 21q-144 52 -144 156q0 67 52 108t126 41q69 0 117 -34.5t70 -94.5z" />
    <glyph glyph-name="uni0162" unicode="&#x162;" horiz-adv-x="562" 
d="M350 0h-3l-48 -43q38 -7 66 -28.5t28 -55.5q0 -59 -61 -83t-147 -3l10 32q44 -9 70 9t26 45q0 22 -22 35.5t-48 -2.5l-39 36l34 58h3v579h-179v121h490v-121h-180v-579z" />
    <glyph glyph-name="uni0163" unicode="&#x163;" horiz-adv-x="370" 
d="M253 -43q38 -7 66 -28.5t28 -55.5q0 -59 -61 -83t-147 -3l10 32q44 -9 70 9t26 45q0 22 -22 35.5t-48 -2.5l-39 36l34 58h11q-85 24 -85 155v259h-73v106h73v122h128v-122h111v-106h-111v-257q0 -50 43 -50q35 0 68 12v-107q-16 -8 -35 -12h1z" />
    <glyph glyph-name="Tcaron" unicode="&#x164;" horiz-adv-x="570" 
d="M310 753h-51l-127 154l40 38l113 -104l113 104l40 -38zM530 700v-121h-180v-579h-131v579h-179v121h490z" />
    <glyph glyph-name="tcaron" unicode="&#x165;" horiz-adv-x="510" 
d="M323 740h154l-115 -159h-97zM224 642v-122h111v-106h-111v-257q0 -50 43 -50q35 0 68 12v-107q-36 -18 -102 -18q-64 0 -100.5 34.5t-36.5 126.5v259h-73v106h73v122h128z" />
    <glyph glyph-name="Tbar" unicode="&#x166;" horiz-adv-x="570" 
d="M530 579h-180v-73h123v-106h-123v-400h-131v400h-122v106h122v73h-179v121h490v-121z" />
    <glyph glyph-name="tbar" unicode="&#x167;" horiz-adv-x="374" 
d="M339 234h-115v-77q0 -50 43 -50q35 0 68 12v-107q-36 -18 -102 -18q-64 0 -100.5 34.5t-36.5 126.5v79h-66v106h66v74h-73v106h73v122h128v-122h111v-106h-111v-74h115v-106z" />
    <glyph glyph-name="Utilde" unicode="&#x168;" horiz-adv-x="653" 
d="M248 924q38 0 97 -34.5t82 -34.5q16 0 30.5 7.5t14.5 17.5h50q0 -54 -30.5 -90.5t-83.5 -36.5q-39 0 -99 39.5t-86 39.5q-16 0 -30 -10t-13 -24h-49q0 54 30.5 90t86.5 36zM462 700h131v-446q0 -123 -76.5 -196t-189.5 -73q-114 0 -190.5 72.5t-76.5 196.5v446h131v-446
q0 -76 39.5 -111t96.5 -35t96 35t39 111v446z" />
    <glyph glyph-name="utilde" unicode="&#x169;" horiz-adv-x="595" 
d="M217 744q39 0 97 -34.5t82 -34.5q16 0 30.5 7.5t14.5 17.5h50q0 -54 -30.5 -90.5t-83.5 -36.5q-39 0 -99 39.5t-86 39.5q-16 0 -30 -10t-13 -24h-49q0 54 30.5 90t86.5 36zM239 -8q-80 0 -137 57t-57 171v300h128v-292q0 -63 30 -93.5t76 -30.5q56 0 89.5 35t44.5 69v312
h129v-520h-129v102q-11 -34 -57.5 -72t-116.5 -38z" />
    <glyph glyph-name="Umacron" unicode="&#x16a;" horiz-adv-x="653" 
d="M515 880v-106h-376v106h376zM462 700h131v-446q0 -123 -76.5 -196t-189.5 -73q-114 0 -190.5 72.5t-76.5 196.5v446h131v-446q0 -76 39.5 -111t96.5 -35t96 35t39 111v446z" />
    <glyph glyph-name="umacron" unicode="&#x16b;" horiz-adv-x="595" 
d="M484 700v-106h-376v106h376zM239 -8q-80 0 -137 57t-57 171v300h128v-292q0 -63 30 -93.5t76 -30.5q56 0 89.5 35t44.5 69v312h129v-520h-129v102q-11 -34 -57.5 -72t-116.5 -38z" />
    <glyph glyph-name="Ubreve" unicode="&#x16c;" horiz-adv-x="653" 
d="M485 910q0 -62 -41 -109.5t-117 -47.5t-117 47.5t-40 109.5h80q3 -29 23 -49.5t54 -20.5t54.5 21t23.5 49h80zM462 700h131v-446q0 -123 -76.5 -196t-189.5 -73q-114 0 -190.5 72.5t-76.5 196.5v446h131v-446q0 -76 39.5 -111t96.5 -35t96 35t39 111v446z" />
    <glyph glyph-name="ubreve" unicode="&#x16d;" horiz-adv-x="595" 
d="M454 730q0 -62 -41 -109.5t-117 -47.5t-117 47.5t-40 109.5h80q3 -29 23 -49.5t54 -20.5t54.5 21t23.5 49h80zM239 -8q-80 0 -137 57t-57 171v300h128v-292q0 -63 30 -93.5t76 -30.5q56 0 89.5 35t44.5 69v312h129v-520h-129v102q-11 -34 -57.5 -72t-116.5 -38z" />
    <glyph glyph-name="Uring" unicode="&#x16e;" horiz-adv-x="653" 
d="M328 981q43 0 75 -32.5t32 -76.5t-31.5 -75.5t-75.5 -31.5q-46 0 -78.5 31.5t-32.5 75.5q0 45 32.5 77t78.5 32zM325 902q-11 0 -19 -8t-8 -20q0 -11 8 -19.5t19 -8.5t20 8.5t9 19.5q0 12 -8.5 20t-20.5 8zM462 700h131v-446q0 -123 -76.5 -196t-189.5 -73
q-114 0 -190.5 72.5t-76.5 196.5v446h131v-446q0 -76 39.5 -111t96.5 -35t96 35t39 111v446z" />
    <glyph glyph-name="uring" unicode="&#x16f;" horiz-adv-x="595" 
d="M297 801q43 0 75 -32.5t32 -76.5t-32 -75.5t-75 -31.5q-46 0 -78.5 31.5t-32.5 75.5q0 45 32.5 77t78.5 32zM294 722q-11 0 -19 -8t-8 -20q0 -11 8 -19.5t19 -8.5t20 8.5t9 19.5q0 12 -8.5 20t-20.5 8zM239 -8q-80 0 -137 57t-57 171v300h128v-292q0 -63 30 -93.5
t76 -30.5q56 0 89.5 35t44.5 69v312h129v-520h-129v102q-11 -34 -57.5 -72t-116.5 -38z" />
    <glyph glyph-name="Uhungarumlaut" unicode="&#x170;" horiz-adv-x="653" 
d="M388 920l-115 -159h-97l58 159h154zM599 920l-115 -159h-97l58 159h154zM462 700h131v-446q0 -123 -76.5 -196t-189.5 -73q-114 0 -190.5 72.5t-76.5 196.5v446h131v-446q0 -76 39.5 -111t96.5 -35t96 35t39 111v446z" />
    <glyph glyph-name="uhungarumlaut" unicode="&#x171;" horiz-adv-x="595" 
d="M357 740l-115 -159h-97l58 159h154zM568 740l-115 -159h-97l58 159h154zM239 -8q-80 0 -137 57t-57 171v300h128v-292q0 -63 30 -93.5t76 -30.5q56 0 89.5 35t44.5 69v312h129v-520h-129v102q-11 -34 -57.5 -72t-116.5 -38z" />
    <glyph glyph-name="Uogonek" unicode="&#x172;" horiz-adv-x="653" 
d="M462 700h131v-446q0 -123 -76.5 -196t-189.5 -73q-114 0 -190.5 72.5t-76.5 196.5v446h131v-446q0 -76 39.5 -111t96.5 -35t96 35t39 111v446zM655 10q-141 -45 -141 -108q0 -27 28 -36.5t52 2.5l28 -56q-33 -19 -87 -21t-99.5 23t-45.5 76q0 80 143 120h122z" />
    <glyph glyph-name="uogonek" unicode="&#x173;" horiz-adv-x="620" 
d="M425 -95q0 -31 27 -44t53 -1l28 -58q-23 -13 -62 -15t-77 7.5t-65.5 35t-27.5 62.5q0 46 35.5 73.5t90.5 34.5h-14v102q-11 -34 -57.5 -72t-116.5 -38q-80 0 -137 57t-57 171v300h128v-292q0 -63 30 -93.5t76 -30.5q56 0 89.5 35t44.5 69v312h129v-520h16
q-76 -29 -104.5 -49t-28.5 -46z" />
    <glyph glyph-name="Wcircumflex" unicode="&#x174;" horiz-adv-x="1035" 
d="M542 945l128 -154l-40 -38l-113 104l-113 -104l-40 38l127 154h51zM1010 700l-229 -700h-93l-171 480l-170 -480h-93l-229 700h138l144 -461l160 461h101l160 -461l144 461h138z" />
    <glyph glyph-name="wcircumflex" unicode="&#x175;" horiz-adv-x="945" 
d="M472 677l-113 -104l-40 38l127 154h51l128 -154l-40 -38zM791 521h129l-191 -521h-122l-135 367l-135 -367h-121l-191 521h128l125 -364l138 364h113l137 -364z" />
    <glyph glyph-name="Ycircumflex" unicode="&#x176;" horiz-adv-x="711" 
d="M380 945l128 -154l-40 -38l-113 104l-113 -104l-40 38l127 154h51zM686 700l-265 -415v-285h-131v285l-265 415h148l182 -292l182 292h149z" />
    <glyph glyph-name="ycircumflex" unicode="&#x177;" horiz-adv-x="626" 
d="M313 677l-113 -104l-40 38l127 154h51l128 -154l-40 -38zM471 521h130l-317 -711h-129l94 207l-224 504h131l157 -364z" />
    <glyph glyph-name="Ydieresis" unicode="&#x178;" horiz-adv-x="711" 
d="M296 881v-112h-119v112h119zM534 881v-112h-120v112h120zM686 700l-265 -415v-285h-131v285l-265 415h148l182 -292l182 292h149z" />
    <glyph glyph-name="Zacute" unicode="&#x179;" horiz-adv-x="605" 
d="M447 920l-115 -159h-97l58 159h154zM576 700l-342 -587h346v-113h-555l342 588h-323v112h532z" />
    <glyph glyph-name="zacute" unicode="&#x17a;" horiz-adv-x="537" 
d="M441 740l-115 -159h-97l58 159h154zM512 520l-280 -407h266v-113h-473l280 408h-255v112h462z" />
    <glyph glyph-name="Zdotaccent" unicode="&#x17b;" horiz-adv-x="605" 
d="M345 881v-112h-119v112h119zM576 700l-342 -587h346v-113h-555l342 588h-323v112h532z" />
    <glyph glyph-name="zdotaccent" unicode="&#x17c;" horiz-adv-x="537" 
d="M339 701v-112h-119v112h119zM512 520l-280 -407h266v-113h-473l280 408h-255v112h462z" />
    <glyph glyph-name="Zcaron" unicode="&#x17d;" horiz-adv-x="605" 
d="M310 753h-51l-127 154l40 38l113 -104l113 104l40 -38zM576 700l-342 -587h346v-113h-555l342 588h-323v112h532z" />
    <glyph glyph-name="zcaron" unicode="&#x17e;" horiz-adv-x="537" 
d="M304 573h-51l-127 154l40 38l113 -104l113 104l40 -38zM512 520l-280 -407h266v-113h-473l280 408h-255v112h462z" />
    <glyph glyph-name="florin" unicode="&#x192;" horiz-adv-x="312" 
d="M287 612q-45 0 -56.5 -20.5t-11.5 -71.5h68v-110h-68v-431q0 -95 -44.5 -132t-154.5 -37v113q46 0 57 16t11 67v404h-70v110h70v23q0 97 45.5 139.5t153.5 42.5v-113z" />
    <glyph glyph-name="uni01CD" unicode="&#x1cd;" horiz-adv-x="780" 
d="M415 753h-51l-127 154l40 38l113 -104l113 104l40 -38zM621 0l-58 135h-346l-58 -135h-139l312 700h117l311 -700h-139zM263 242h254l-127 297z" />
    <glyph glyph-name="uni01CE" unicode="&#x1ce;" 
d="M326 573h-51l-127 154l40 38l113 -104l113 104l40 -38zM277 529q61 0 110 -30.5t54 -58.5v80h128v-520h-128v88q-5 -35 -53 -66.5t-111 -31.5q-94 0 -171.5 71.5t-77.5 198.5q0 64 23 117t60 85t80 49.5t86 17.5zM298 415q-60 0 -102.5 -41t-42.5 -114q0 -74 42.5 -115
t102.5 -41q61 0 105 41t44 115q0 73 -44 114t-105 41z" />
    <glyph glyph-name="uni01CF" unicode="&#x1cf;" horiz-adv-x="251" 
d="M151 753h-51l-127 154l40 38l113 -104l113 104l40 -38zM191 700v-700h-131v700h131z" />
    <glyph glyph-name="uni01D0" unicode="&#x1d0;" horiz-adv-x="235" 
d="M142 573h-51l-127 154l40 38l113 -104l113 104l40 -38zM182 520v-520h-129v520h129z" />
    <glyph glyph-name="uni01D1" unicode="&#x1d1;" horiz-adv-x="814" 
d="M430 753h-51l-127 154l40 38l113 -104l113 104l40 -38zM407 710q148 0 255 -102.5t107 -257.5t-107 -257.5t-255 -102.5t-255 102.5t-107 257.5t107 257.5t255 102.5zM407 113q93 0 159 67.5t66 169.5t-66 169.5t-159 67.5q-94 0 -160 -67.5t-66 -169.5t66 -169.5
t160 -67.5z" />
    <glyph glyph-name="uni01D2" unicode="&#x1d2;" horiz-adv-x="599" 
d="M324 573h-51l-127 154l40 38l113 -104l113 104l40 -38zM299 529q46 0 92.5 -17.5t87 -49.5t66 -85.5t25.5 -117.5q0 -65 -25.5 -118t-66 -85t-87 -49t-92.5 -17t-92.5 17t-87 49t-66 85t-25.5 118q0 64 25.5 117.5t66 85.5t87 49.5t92.5 17.5zM299 415q-57 0 -101.5 -42
t-44.5 -114t44.5 -113.5t101.5 -41.5t102 41.5t45 113.5q0 73 -44.5 114.5t-102.5 41.5z" />
    <glyph glyph-name="uni01D3" unicode="&#x1d3;" horiz-adv-x="653" 
d="M352 753h-51l-127 154l40 38l113 -104l113 104l40 -38zM462 700h131v-446q0 -123 -76.5 -196t-189.5 -73q-114 0 -190.5 72.5t-76.5 196.5v446h131v-446q0 -76 39.5 -111t96.5 -35t96 35t39 111v446z" />
    <glyph glyph-name="uni01D4" unicode="&#x1d4;" horiz-adv-x="595" 
d="M321 573h-51l-127 154l40 38l113 -104l113 104l40 -38zM239 -8q-80 0 -137 57t-57 171v300h128v-292q0 -63 30 -93.5t76 -30.5q56 0 89.5 35t44.5 69v312h129v-520h-129v102q-11 -34 -57.5 -72t-116.5 -38z" />
    <glyph glyph-name="uni01EA" unicode="&#x1ea;" horiz-adv-x="814" 
d="M490 -1q-139 -44 -139 -107q0 -27 28 -36.5t52 2.5l28 -56q-33 -19 -87 -21t-99.5 23t-45.5 76q0 74 124 114q-130 20 -218 118t-88 238q0 155 107 257.5t255 102.5t255 -102.5t107 -257.5q0 -132 -79 -227.5t-200 -123.5zM181 350q0 -102 66 -169.5t160 -67.5
q93 0 159 67.5t66 169.5t-66 169.5t-159 67.5q-94 0 -160 -67.5t-66 -169.5z" />
    <glyph glyph-name="uni01EB" unicode="&#x1eb;" horiz-adv-x="599" 
d="M570 259q0 -102 -58 -169t-141 -90h5q-141 -45 -141 -108q0 -27 28 -36.5t52 2.5l28 -56q-33 -19 -87 -21t-99.5 23t-45.5 76q0 76 131 116q-88 20 -151 88t-63 175q0 64 25.5 117.5t66 85.5t87 49.5t92.5 17.5t92.5 -17.5t87 -49.5t66 -85.5t25.5 -117.5zM299 104
q57 0 102 41.5t45 113.5q0 73 -44.5 114.5t-102.5 41.5q-57 0 -101.5 -42t-44.5 -114t44.5 -113.5t101.5 -41.5z" />
    <glyph glyph-name="Scommaaccent" unicode="&#x218;" horiz-adv-x="573" 
d="M287 712q82 0 142 -42.5t90 -102.5l-97 -57q-58 86 -135 86q-42 0 -69.5 -23t-27.5 -58q0 -30 20 -50t66 -37l48 -18q112 -40 163 -92t51 -127q0 -95 -75.5 -150.5t-172.5 -55.5q-92 0 -161 48.5t-94 123.5l101 53q47 -106 154 -106q49 0 80.5 23t31.5 66q0 39 -26 62
t-88 46l-45 16q-89 32 -136 78t-47 126q0 82 66 136.5t161 54.5zM149 -256l54 228h169l-108 -228h-115z" />
    <glyph glyph-name="scommaaccent" unicode="&#x219;" horiz-adv-x="458" 
d="M303 371q-25 55 -75 55q-25 0 -42 -13t-17 -34q0 -35 50 -54l61 -21q35 -13 57 -23.5t45.5 -28t34.5 -43t11 -59.5q0 -76 -58 -118.5t-143 -42.5q-79 0 -132.5 38t-69.5 106l102 31q11 -32 37 -52.5t63 -20.5q32 0 54 16.5t22 40.5q0 34 -54 55l-60 21q-144 52 -144 156
q0 67 52 108t126 41q69 0 117 -34.5t70 -94.5zM98 -256l54 228h169l-108 -228h-115z" />
    <glyph glyph-name="uni021A" unicode="&#x21a;" horiz-adv-x="570" 
d="M40 700h490v-121h-180v-579h-131v579h-179v121zM151 -256l54 228h169l-108 -228h-115z" />
    <glyph glyph-name="uni021B" unicode="&#x21b;" horiz-adv-x="370" 
d="M335 414h-111v-257q0 -50 43 -50q35 0 68 12v-107q-36 -18 -102 -18q-64 0 -100.5 34.5t-36.5 126.5v259h-73v106h73v122h128v-122h111v-106zM98 -256l54 228h169l-108 -228h-115z" />
    <glyph glyph-name="uni0237" unicode="&#x237;" horiz-adv-x="257" 
d="M204 520v-566q0 -81 -40 -120.5t-111 -39.5q-65 0 -108 26v108q37 -18 73 -18q57 0 57 60v550h129z" />
    <glyph glyph-name="circumflex" unicode="&#x2c6;" horiz-adv-x="306" 
d="M178 765l128 -154l-40 -38l-113 104l-113 -104l-40 38l127 154h51z" />
    <glyph glyph-name="caron" unicode="&#x2c7;" horiz-adv-x="306" 
d="M178 573h-51l-127 154l40 38l113 -104l113 104l40 -38z" />
    <glyph glyph-name="breve" unicode="&#x2d8;" horiz-adv-x="315" 
d="M315 730q0 -62 -41 -109.5t-117 -47.5t-117 47.5t-40 109.5h80q3 -29 23 -49.5t54 -20.5t54.5 21t23.5 49h80z" />
    <glyph glyph-name="dotaccent" unicode="&#x2d9;" horiz-adv-x="119" 
d="M119 701v-112h-119v112h119z" />
    <glyph glyph-name="ring" unicode="&#x2da;" horiz-adv-x="218" 
d="M111 801q43 0 75 -32.5t32 -76.5t-32 -75.5t-75 -31.5q-46 0 -78.5 31.5t-32.5 75.5q0 45 32.5 77t78.5 32zM108 722q-11 0 -19 -8t-8 -20q0 -11 8 -19.5t19 -8.5t20 8.5t9 19.5q0 12 -8.5 20t-20.5 8z" />
    <glyph glyph-name="ogonek" unicode="&#x2db;" horiz-adv-x="265" 
d="M265 0q-141 -45 -141 -108q0 -27 28 -36.5t52 2.5l28 -56q-33 -19 -87 -21t-99.5 23t-45.5 76q0 80 143 120h122z" />
    <glyph glyph-name="tilde" unicode="&#x2dc;" horiz-adv-x="391" 
d="M117 744q39 0 97 -34.5t82 -34.5q16 0 30.5 7.5t14.5 17.5h50q0 -54 -30.5 -90.5t-83.5 -36.5q-39 0 -99 39.5t-86 39.5q-16 0 -30 -10t-13 -24h-49q0 54 30.5 90t86.5 36z" />
    <glyph glyph-name="hungarumlaut" unicode="&#x2dd;" horiz-adv-x="422" 
d="M212 740l-115 -159h-97l58 159h154zM423 740l-115 -159h-97l58 159h154z" />
    <glyph glyph-name="uni0326" unicode="&#x326;" horiz-adv-x="0" 
d="M-248 -215l54 228h169l-108 -228h-115z" />
    <glyph glyph-name="uni0394" unicode="&#x394;" horiz-adv-x="733" 
d="M381 700l302 -700h-633l302 700h29zM367 488l-153 -375h305z" />
    <glyph glyph-name="uni03A9" unicode="&#x3a9;" horiz-adv-x="784" 
d="M739 356q0 -131 -93 -231h68v-125h-229v152l32 26q88 71 88 178q0 102 -62.5 161.5t-150.5 59.5t-150 -59.5t-62 -161.5q0 -108 87 -178l32 -26v-152h-229v125h68q-93 100 -93 231q0 99 51.5 181t130.5 126t165 44t165 -44t130.5 -126t51.5 -181z" />
    <glyph glyph-name="uni03BC" unicode="&#x3bc;" horiz-adv-x="595" 
d="M413 520h129v-520h-129v102q-11 -34 -57.5 -72t-116.5 -38q-31 0 -60 9v-191h-129v350q-5 30 -5 60v300h134v-340q21 -76 100 -76q56 0 89.5 35t44.5 69v312z" />
    <glyph glyph-name="pi" unicode="&#x3c0;" horiz-adv-x="724" 
d="M611 107q32 0 68 18v-113q-36 -18 -108 -18q-50 0 -91.5 24.5t-41.5 75.5v314h-157v-408h-131v408h-100v112h618v-112h-99v-246q0 -33 9.5 -44t32.5 -11z" />
    <glyph glyph-name="uni0401" unicode="&#x401;" horiz-adv-x="541" 
d="M211 881v-112h-119v112h119zM449 881v-112h-120v112h120zM191 121h305v-121h-436v700h427v-121h-296v-168h225v-118h-225v-172z" />
    <glyph glyph-name="uni0403" unicode="&#x403;" horiz-adv-x="537" 
d="M456 920l-115 -159h-97l58 159h154zM502 700v-121h-311v-579h-131v700h442z" />
    <glyph glyph-name="uni0404" unicode="&#x404;" horiz-adv-x="681" 
d="M567 167l79 -92q-97 -85 -238 -85q-148 0 -255.5 102.5t-107.5 257.5t107.5 257.5t255.5 102.5q138 0 234 -83l-79 -90q-67 50 -147 50q-83 0 -146.5 -50t-82.5 -130h172v-113h-172q18 -81 81.5 -131t147.5 -50t151 54z" />
    <glyph glyph-name="uni0406" unicode="&#x406;" horiz-adv-x="251" 
d="M191 700v-700h-131v700h131z" />
    <glyph glyph-name="uni0407" unicode="&#x407;" horiz-adv-x="251" 
d="M67 881v-112h-119v112h119zM305 881v-112h-120v112h120zM191 700v-700h-131v700h131z" />
    <glyph glyph-name="uni0410" unicode="&#x410;" horiz-adv-x="780" 
d="M621 0l-58 135h-346l-58 -135h-139l312 700h117l311 -700h-139zM263 242h254l-127 297z" />
    <glyph glyph-name="uni0411" unicode="&#x411;" horiz-adv-x="592" 
d="M301 462q118 0 187 -61.5t69 -165.5q0 -105 -69.5 -170t-186.5 -65h-241v700h435v-121h-304v-117h110zM294 121q62 0 97 28.5t35 85.5q0 58 -35 86t-97 28h-103v-228h103z" />
    <glyph glyph-name="uni0412" unicode="&#x412;" horiz-adv-x="616" 
d="M434 387q63 -16 105 -65.5t42 -123.5q0 -91 -64 -144.5t-191 -53.5h-266v700h255q103 0 159.5 -50t56.5 -124q0 -51 -27.5 -86.5t-69.5 -52.5zM304 585h-113v-162h113q48 0 72.5 22.5t24.5 62.5q0 37 -25 57t-72 20zM320 115q65 0 97.5 27.5t32.5 75.5t-33.5 76
t-100.5 28h-125v-207h129z" />
    <glyph glyph-name="uni0413" unicode="&#x413;" horiz-adv-x="537" 
d="M502 700v-121h-311v-579h-131v700h442z" />
    <glyph glyph-name="uni0414" unicode="&#x414;" horiz-adv-x="876" 
d="M720 121h116v-190h-131v69h-534v-69h-131v190h103q16 45 24 119.5t9 135t1 184.5v140h543v-579zM273 121h316v458h-281v-19q0 -124 -1 -184.5t-9.5 -135t-24.5 -119.5z" />
    <glyph glyph-name="uni0415" unicode="&#x415;" horiz-adv-x="541" 
d="M191 121h305v-121h-436v700h427v-121h-296v-168h225v-118h-225v-172z" />
    <glyph glyph-name="uni0416" unicode="&#x416;" horiz-adv-x="1127" 
d="M950 0l-230 305l-89 -100v-205h-135v205l-89 100l-230 -305h-152l300 397l-269 303h162l278 -320v320h135v-320l278 320h162l-269 -303l300 -397h-152z" />
    <glyph glyph-name="uni0417" unicode="&#x417;" horiz-adv-x="604" 
d="M299 707q95 0 163 -54.5t68 -137.5q0 -53 -37 -94t-84 -51q52 -1 103.5 -47.5t51.5 -119.5q0 -100 -76.5 -156.5t-188.5 -56.5t-185.5 61t-73.5 155h136q0 -45 40 -68.5t83 -23.5q48 0 88.5 23t40.5 73q0 46 -40 75t-118 30v97q124 7 124 94q0 35 -29 56t-66 21
q-40 0 -70.5 -22.5t-30.5 -66.5h-136q0 99 68 156t169 57z" />
    <glyph glyph-name="uni0418" unicode="&#x418;" horiz-adv-x="716" 
d="M191 700v-470l364 470h101v-700h-131v469l-365 -469h-100v700h131z" />
    <glyph glyph-name="uni0419" unicode="&#x419;" horiz-adv-x="716" 
d="M539 910q0 -62 -41 -109.5t-117 -47.5t-117 47.5t-40 109.5h80q3 -29 23 -49.5t54 -20.5t54.5 21t23.5 49h80zM191 700v-470l364 470h101v-700h-131v469l-365 -469h-100v700h131z" />
    <glyph glyph-name="uni041A" unicode="&#x41a;" horiz-adv-x="691" 
d="M514 0l-230 305l-89 -100v-205h-135v700h135v-320l278 320h162l-269 -303l300 -397h-152z" />
    <glyph glyph-name="uni041B" unicode="&#x41b;" horiz-adv-x="746" 
d="M686 700v-700h-131v579h-289v-424q0 -93 -37.5 -127t-104.5 -34q-63 0 -99 18v113q36 -18 68 -18q21 0 31.5 16t10.5 34v543h551z" />
    <glyph glyph-name="uni041C" unicode="&#x41c;" horiz-adv-x="883" 
d="M823 700v-700h-135v433l-195 -433h-105l-193 432v-432h-135v700h131l251 -534l250 534h131z" />
    <glyph glyph-name="uni041D" unicode="&#x41d;" horiz-adv-x="682" 
d="M491 700h131v-700h-131v288h-300v-288h-131v700h131v-291h300v291z" />
    <glyph glyph-name="uni041E" unicode="&#x41e;" horiz-adv-x="814" 
d="M407 710q148 0 255 -102.5t107 -257.5t-107 -257.5t-255 -102.5t-255 102.5t-107 257.5t107 257.5t255 102.5zM407 113q93 0 159 67.5t66 169.5t-66 169.5t-159 67.5q-94 0 -160 -67.5t-66 -169.5t66 -169.5t160 -67.5z" />
    <glyph glyph-name="uni041F" unicode="&#x41f;" horiz-adv-x="687" 
d="M627 700v-700h-131v579h-305v-579h-131v700h567z" />
    <glyph glyph-name="uni0420" unicode="&#x420;" horiz-adv-x="592" 
d="M301 700q117 0 186.5 -65t69.5 -170q0 -104 -69 -165.5t-187 -61.5h-110v-238h-131v700h241zM294 351q62 0 97 28t35 86q0 57 -35 85.5t-97 28.5h-103v-228h103z" />
    <glyph glyph-name="uni0421" unicode="&#x421;" horiz-adv-x="681" 
d="M646 75q-97 -85 -238 -85q-148 0 -255.5 102.5t-107.5 257.5t107.5 257.5t255.5 102.5q138 0 234 -83l-79 -90q-67 50 -147 50q-99 0 -167 -67.5t-68 -169.5t68 -169.5t167 -67.5q84 0 151 54z" />
    <glyph glyph-name="uni0422" unicode="&#x422;" horiz-adv-x="570" 
d="M530 700v-121h-180v-579h-131v579h-179v121h490z" />
    <glyph glyph-name="uni0423" unicode="&#x423;" horiz-adv-x="711" 
d="M537 700h144l-382 -700h-143l128 235l-254 465h144l181 -333z" />
    <glyph glyph-name="uni0424" unicode="&#x424;" horiz-adv-x="904" 
d="M864 350q0 -118 -98 -197.5t-249 -86.5v-66h-131v66q-151 7 -248.5 86.5t-97.5 197.5t97.5 197.5t248.5 86.5v66h131v-66q151 -7 249 -86.5t98 -197.5zM517 179q61 3 105 19.5t67 42.5t33.5 53t10.5 56q0 30 -10.5 57t-33.5 53t-67 42.5t-105 19.5v-343zM171 350
q0 -29 10 -56t33 -53t67 -42.5t105 -19.5v343q-61 -3 -105 -20t-67 -42.5t-33 -52.5t-10 -57z" />
    <glyph glyph-name="uni0425" unicode="&#x425;" horiz-adv-x="684" 
d="M659 0h-154l-163 241l-162 -241h-155l239 355l-234 345h154l157 -231l155 231h154l-232 -345z" />
    <glyph glyph-name="uni0426" unicode="&#x426;" horiz-adv-x="780" 
d="M759 121v-190h-132v69h-567v700h131v-579h305v579h131v-579h132z" />
    <glyph glyph-name="uni0427" unicode="&#x427;" horiz-adv-x="640" 
d="M449 700h131v-700h-131v296q-16 -32 -60 -62t-106 -30q-101 0 -164.5 55.5t-63.5 168.5v272h131v-272q0 -56 35 -81t83 -25q55 0 90.5 30t54.5 69v279z" />
    <glyph glyph-name="uni0428" unicode="&#x428;" horiz-adv-x="1124" 
d="M932 700h131v-700h-1003v700h131v-579h305v579h131v-579h305v579z" />
    <glyph glyph-name="uni0429" unicode="&#x429;" horiz-adv-x="1215" 
d="M1194 121v-190h-130v69h-1004v700h131v-579h305v579h131v-579h305v579h131v-579h131z" />
    <glyph glyph-name="uni042A" unicode="&#x42a;" horiz-adv-x="697" 
d="M406 462q118 0 187 -61.5t69 -165.5q0 -105 -69.5 -170t-186.5 -65h-241v579h-135v121h266v-238h110zM399 121q62 0 97 28.5t35 85.5q0 58 -35 86t-97 28h-103v-228h103z" />
    <glyph glyph-name="uni042B" unicode="&#x42b;" horiz-adv-x="862" 
d="M301 462q118 0 187 -61.5t69 -165.5q0 -105 -69.5 -170t-186.5 -65h-241v700h131v-238h110zM671 700h131v-700h-131v700zM294 121q62 0 97 28.5t35 85.5q0 58 -35 86t-97 28h-103v-228h103z" />
    <glyph glyph-name="uni042C" unicode="&#x42c;" horiz-adv-x="592" 
d="M301 462q118 0 187 -61.5t69 -165.5q0 -105 -69.5 -170t-186.5 -65h-241v700h131v-238h110zM294 121q62 0 97 28.5t35 85.5q0 58 -35 86t-97 28h-103v-228h103z" />
    <glyph glyph-name="uni042D" unicode="&#x42d;" horiz-adv-x="681" 
d="M283 710q148 0 255.5 -102.5t107.5 -257.5t-107.5 -257.5t-255.5 -102.5q-141 0 -238 85l79 92q67 -54 151 -54t147.5 50t81.5 131h-172v113h172q-19 80 -82.5 130t-146.5 50q-80 0 -147 -50l-79 90q96 83 234 83z" />
    <glyph glyph-name="uni042E" unicode="&#x42e;" horiz-adv-x="1040" 
d="M634 710q148 0 255 -102.5t107 -257.5t-107 -257.5t-255 -102.5q-133 0 -235.5 85t-122.5 219h-85v-294h-131v700h131v-293h85q21 134 123 218.5t235 84.5zM634 113q93 0 159 67.5t66 169.5t-66 169.5t-159 67.5q-94 0 -160 -67.5t-66 -169.5t66 -169.5t160 -67.5z" />
    <glyph glyph-name="uni042F" unicode="&#x42f;" horiz-adv-x="632" 
d="M331 700h241v-700h-131v238h-110h-6l-156 -238h-139l175 261q-62 26 -96 79t-34 125q0 105 69.5 170t186.5 65zM338 351h103v228h-103q-62 0 -97 -28.5t-35 -85.5q0 -58 35 -86t97 -28z" />
    <glyph glyph-name="uni0430" unicode="&#x430;" 
d="M277 529q61 0 110 -30.5t54 -58.5v80h128v-520h-128v88q-5 -35 -53 -66.5t-111 -31.5q-94 0 -171.5 71.5t-77.5 198.5q0 64 23 117t60 85t80 49.5t86 17.5zM298 415q-60 0 -102.5 -41t-42.5 -114q0 -74 42.5 -115t102.5 -41q61 0 105 41t44 115q0 73 -44 114t-105 41z
" />
    <glyph glyph-name="uni0431" unicode="&#x431;" horiz-adv-x="629" 
d="M352 529q43 0 86 -17.5t80 -49.5t60 -85t23 -117q0 -127 -77.5 -198.5t-171.5 -71.5q-63 0 -111 31.5t-53 66.5v-88h-128v380h-7v140q0 92 46 136t148 44h84q57 0 74 20h125q-25 -66 -68 -96t-121 -30h-80q-37 0 -58 -18.5t-21 -55.5h6v-80q5 28 54 58.5t110 30.5z
M331 104q60 0 102.5 41t42.5 115q0 73 -42.5 114t-102.5 41q-61 0 -105 -41t-44 -114q0 -74 44 -115t105 -41z" />
    <glyph glyph-name="uni0432" unicode="&#x432;" horiz-adv-x="584" 
d="M444 288q105 -40 105 -132q0 -80 -62 -118t-168 -38h-266v520h266q85 0 137.5 -35.5t52.5 -98.5q0 -67 -65 -98zM319 414h-137v-91h136q33 0 46 15t13 33q0 16 -12.5 29.5t-45.5 13.5zM319 106q43 0 66 10t28 21t5 27q0 60 -100 60h-136v-118h137z" />
    <glyph glyph-name="uni0433" unicode="&#x433;" horiz-adv-x="499" 
d="M459 520v-112h-277v-408h-129v520h406z" />
    <glyph glyph-name="uni0434" unicode="&#x434;" horiz-adv-x="713" 
d="M610 113h73v-169h-129v56h-395v-56h-129v169h60q20 28 29.5 78.5t11 94t1.5 134.5v100h478v-407zM217 113h265v295h-222q0 -87 -1.5 -128.5t-11.5 -90.5t-30 -76z" />
    <glyph glyph-name="uni0435" unicode="&#x435;" horiz-adv-x="577" 
d="M294 529q37 0 74.5 -11t73 -35.5t61.5 -60t38 -89.5t4 -119h-389q12 -56 52.5 -85.5t98.5 -29.5q46 0 74 9.5t61 30.5l71 -69q-75 -80 -210 -80q-50 0 -98 17.5t-88 49.5t-64.5 85t-24.5 117t25 117.5t64.5 85.5t85.5 49.5t91 17.5zM294 419q-46 0 -85 -29.5t-52 -82.5
h275q-10 52 -50.5 82t-87.5 30z" />
    <glyph glyph-name="uni0436" unicode="&#x436;" horiz-adv-x="941" 
d="M751 0l-189 189l-27 -28v-161h-129v161l-27 28l-189 -189h-170l273 276l-240 244h165l188 -186v186h129v-186l188 186h165l-240 -244l273 -276h-170z" />
    <glyph glyph-name="uni0437" unicode="&#x437;" horiz-adv-x="528" 
d="M259 529q87 0 144 -43.5t57 -102.5q0 -25 -8 -44t-23.5 -31t-26.5 -18t-27 -12q21 -3 44 -13.5t46 -39.5t23 -70q0 -76 -66.5 -120.5t-159.5 -44.5q-99 0 -160.5 50t-61.5 133h122q0 -33 30 -55.5t71 -22.5t70.5 17.5t29.5 49.5q0 34 -31 52t-87 18v86q52 1 71 14.5
t19 38.5q0 21 -19.5 36.5t-53.5 15.5q-33 0 -55 -16t-22 -40h-123q0 71 52 116.5t145 45.5z" />
    <glyph glyph-name="uni0438" unicode="&#x438;" horiz-adv-x="593" 
d="M540 520v-520h-129v289l-339 -289h-19v520h129v-289l339 289h19z" />
    <glyph glyph-name="uni0439" unicode="&#x439;" horiz-adv-x="593" 
d="M455 730q0 -62 -41 -109.5t-117 -47.5t-117 47.5t-40 109.5h80q3 -29 23 -49.5t54 -20.5t54.5 21t23.5 49h80zM540 520v-520h-129v289l-339 -289h-19v520h129v-289l339 289h19z" />
    <glyph glyph-name="uni043A" unicode="&#x43a;" horiz-adv-x="588" 
d="M398 0l-189 189l-27 -28v-161h-129v520h129v-186l188 186h165l-240 -244l273 -276h-170z" />
    <glyph glyph-name="uni043B" unicode="&#x43b;" horiz-adv-x="673" 
d="M620 520v-520h-129v408h-229v-253q0 -93 -36.5 -127t-101.5 -34q-63 0 -99 18v106q25 -11 65 -11q43 0 43 43v370h487z" />
    <glyph glyph-name="uni043C" unicode="&#x43c;" horiz-adv-x="728" 
d="M675 520v-520h-129v220l-182 -220l-182 220v-220h-129v520h25l286 -342l286 342h25z" />
    <glyph glyph-name="uni043D" unicode="&#x43d;" horiz-adv-x="583" 
d="M401 520h129v-520h-129v195h-219v-195h-129v520h129v-213h219v213z" />
    <glyph glyph-name="uni043E" unicode="&#x43e;" horiz-adv-x="599" 
d="M299 529q46 0 92.5 -17.5t87 -49.5t66 -85.5t25.5 -117.5q0 -65 -25.5 -118t-66 -85t-87 -49t-92.5 -17t-92.5 17t-87 49t-66 85t-25.5 118q0 64 25.5 117.5t66 85.5t87 49.5t92.5 17.5zM299 415q-57 0 -101.5 -42t-44.5 -114t44.5 -113.5t101.5 -41.5t102 41.5t45 113.5
q0 73 -44.5 114.5t-102.5 41.5z" />
    <glyph glyph-name="uni043F" unicode="&#x43f;" horiz-adv-x="599" 
d="M546 520v-520h-129v408h-235v-408h-129v520h493z" />
    <glyph glyph-name="uni0440" unicode="&#x440;" 
d="M345 529q43 0 86 -17.5t80 -49.5t60 -85t23 -117q0 -127 -77.5 -198.5t-171.5 -71.5q-60 0 -107 29t-56 64v-273h-129v710h128v-80q5 28 54 58.5t110 30.5zM324 104q60 0 102.5 41t42.5 115q0 73 -42.5 114t-102.5 41q-61 0 -105 -41t-44 -114q0 -74 44 -115t105 -41z
" />
    <glyph glyph-name="uni0441" unicode="&#x441;" horiz-adv-x="553" 
d="M299 529q151 0 222 -125l-98 -46q-50 57 -123 57q-58 0 -102.5 -41.5t-44.5 -114.5q0 -72 44.5 -113t102.5 -41q74 0 123 56l100 -46q-74 -124 -224 -124q-63 0 -123 28t-104 91t-44 149q0 64 25.5 117.5t66 85.5t87 49.5t92.5 17.5z" />
    <glyph glyph-name="uni0442" unicode="&#x442;" horiz-adv-x="469" 
d="M439 520v-112h-141v-408h-128v408h-140v112h409z" />
    <glyph glyph-name="uni0443" unicode="&#x443;" horiz-adv-x="626" 
d="M471 521h130l-317 -711h-129l94 207l-224 504h131l157 -364z" />
    <glyph glyph-name="uni0444" unicode="&#x444;" horiz-adv-x="1010" 
d="M732 529q43 0 86 -17.5t80 -49.5t60 -85t23 -117q0 -127 -77.5 -198.5t-171.5 -71.5q-60 0 -107 29t-56 64v-273h-129v266q-10 -28 -57.5 -56.5t-105.5 -28.5q-43 0 -86 17.5t-80 49.5t-60 85t-23 117q0 127 77.5 198.5t171.5 71.5q60 0 107 -29t56 -64v273h129v-266
q10 28 57.5 56.5t105.5 28.5zM298 105q48 0 88 27t54 77v103q-14 50 -54 77t-88 27q-60 0 -102.5 -41t-42.5 -115q0 -73 42.5 -114t102.5 -41zM711 104q60 0 102.5 41t42.5 115q0 73 -42.5 114t-102.5 41q-48 0 -88 -27t-54 -77v-103q14 -50 54 -77t88 -27z" />
    <glyph glyph-name="uni0445" unicode="&#x445;" horiz-adv-x="592" 
d="M421 0l-125 173l-125 -173h-148l199 266l-182 254h146l110 -160l110 160h146l-182 -254l199 -266h-148z" />
    <glyph glyph-name="uni0446" unicode="&#x446;" horiz-adv-x="633" 
d="M546 113h65v-182h-129v69h-429v520h129v-408h235v408h129v-407z" />
    <glyph glyph-name="uni0447" unicode="&#x447;" horiz-adv-x="591" 
d="M409 520h128v-520h-128v225q-5 -11 -14.5 -22.5t-29 -28.5t-52.5 -27.5t-74 -10.5q-50 0 -91.5 17.5t-72 65t-30.5 120.5v181h129v-182q0 -41 23 -64.5t66 -23.5q49 0 88 30.5t58 81.5v158z" />
    <glyph glyph-name="uni0448" unicode="&#x448;" horiz-adv-x="818" 
d="M765 520v-520h-712v520h129v-407h163v407h129v-407h163v407h128z" />
    <glyph glyph-name="uni0449" unicode="&#x449;" horiz-adv-x="852" 
d="M765 113h65v-182h-128v69h-649v520h129v-407h163v407h129v-407h163v407h128v-407z" />
    <glyph glyph-name="uni044A" unicode="&#x44a;" horiz-adv-x="625" 
d="M394 324q91 0 147 -43.5t56 -118.5t-56 -118.5t-147 -43.5h-293v408h-81v112h210v-196h164zM393 113q79 0 79 49t-79 49h-163v-98h163z" />
    <glyph glyph-name="uni044B" unicode="&#x44b;" horiz-adv-x="812" 
d="M346 324q91 0 147 -43.5t56 -118.5t-56 -118.5t-147 -43.5h-293v520h129v-196h164zM631 520h128v-520h-128v520zM345 113q79 0 79 49t-79 49h-163v-98h163z" />
    <glyph glyph-name="uni044C" unicode="&#x44c;" horiz-adv-x="577" 
d="M346 324q91 0 147 -43.5t56 -118.5t-56 -118.5t-147 -43.5h-293v520h129v-196h164zM345 113q79 0 79 49t-79 49h-163v-98h163z" />
    <glyph glyph-name="uni044D" unicode="&#x44d;" horiz-adv-x="551" 
d="M252 529q46 0 92.5 -17.5t87 -49.5t66 -85.5t25.5 -117.5q0 -86 -44 -149t-104 -91t-123 -28q-150 0 -224 124l100 46q49 -56 123 -56q46 0 86.5 28t54.5 79h-139v89h140q-12 54 -53 84t-89 30q-73 0 -123 -57l-98 46q71 125 222 125z" />
    <glyph glyph-name="uni044E" unicode="&#x44e;" horiz-adv-x="833" 
d="M513 529q46 0 92.5 -17.5t87 -49.5t66 -85.5t25.5 -117.5q0 -65 -25.5 -118t-66 -85t-87 -49t-92.5 -17q-86 0 -164.5 54.5t-100.5 152.5h-66v-197h-129v520h129v-204h65q14 67 58.5 117t98.5 73t109 23zM513 104q57 0 102 41.5t45 113.5q0 73 -44.5 114.5t-102.5 41.5
q-57 0 -101.5 -42t-44.5 -114t44.5 -113.5t101.5 -41.5z" />
    <glyph glyph-name="uni044F" unicode="&#x44f;" horiz-adv-x="598" 
d="M545 520v-520h-129v153h-94l-144 -153h-148l155 167q-60 20 -95.5 64.5t-35.5 105.5q0 82 63.5 132.5t158.5 50.5h269zM416 266v142h-140q-47 0 -72 -19.5t-25 -51.5t25 -51.5t72 -19.5h140z" />
    <glyph glyph-name="uni0451" unicode="&#x451;" horiz-adv-x="577" 
d="M239 701v-112h-119v112h119zM477 701v-112h-120v112h120zM294 529q37 0 74.5 -11t73 -35.5t61.5 -60t38 -89.5t4 -119h-389q12 -56 52.5 -85.5t98.5 -29.5q46 0 74 9.5t61 30.5l71 -69q-75 -80 -210 -80q-50 0 -98 17.5t-88 49.5t-64.5 85t-24.5 117t25 117.5t64.5 85.5
t85.5 49.5t91 17.5zM294 419q-46 0 -85 -29.5t-52 -82.5h275q-10 52 -50.5 82t-87.5 30z" />
    <glyph glyph-name="uni0453" unicode="&#x453;" horiz-adv-x="499" 
d="M418 740l-115 -159h-97l58 159h154zM459 520v-112h-277v-408h-129v520h406z" />
    <glyph glyph-name="uni0454" unicode="&#x454;" horiz-adv-x="553" 
d="M436 161l100 -46q-74 -124 -224 -124q-63 0 -123 28t-104 91t-44 149q0 64 25.5 117.5t66 85.5t87 49.5t92.5 17.5q151 0 222 -125l-98 -46q-50 57 -123 57q-48 0 -89 -30t-53 -84h140v-89h-139q14 -51 54.5 -79t86.5 -28q74 0 123 56z" />
    <glyph glyph-name="uni0456" unicode="&#x456;" horiz-adv-x="235" 
d="M182 707v-123h-129v123h129zM182 520v-520h-129v520h129z" />
    <glyph glyph-name="uni0457" unicode="&#x457;" horiz-adv-x="235" 
d="M58 701v-112h-119v112h119zM296 701v-112h-120v112h120zM182 520v-520h-129v520h129z" />
    <glyph glyph-name="uni0490" unicode="&#x490;" horiz-adv-x="537" 
d="M371 747h131v-168h-311v-579h-131v700h311v47z" />
    <glyph glyph-name="uni0491" unicode="&#x491;" horiz-adv-x="499" 
d="M331 566h128v-158h-277v-408h-129v520h278v46z" />
    <glyph glyph-name="Wgrave" unicode="&#x1e80;" horiz-adv-x="1035" 
d="M363 920h154l58 -159h-97zM1010 700l-229 -700h-93l-171 480l-170 -480h-93l-229 700h138l144 -461l160 461h101l160 -461l144 461h138z" />
    <glyph glyph-name="wgrave" unicode="&#x1e81;" horiz-adv-x="945" 
d="M530 581h-97l-115 159h154zM791 521h129l-191 -521h-122l-135 367l-135 -367h-121l-191 521h128l125 -364l138 364h113l137 -364z" />
    <glyph glyph-name="Wacute" unicode="&#x1e82;" horiz-adv-x="1035" 
d="M679 920l-115 -159h-97l58 159h154zM1010 700l-229 -700h-93l-171 480l-170 -480h-93l-229 700h138l144 -461l160 461h101l160 -461l144 461h138z" />
    <glyph glyph-name="wacute" unicode="&#x1e83;" horiz-adv-x="945" 
d="M634 740l-115 -159h-97l58 159h154zM791 521h129l-191 -521h-122l-135 367l-135 -367h-121l-191 521h128l125 -364l138 364h113l137 -364z" />
    <glyph glyph-name="Wdieresis" unicode="&#x1e84;" horiz-adv-x="1035" 
d="M458 881v-112h-119v112h119zM696 881v-112h-120v112h120zM1010 700l-229 -700h-93l-171 480l-170 -480h-93l-229 700h138l144 -461l160 461h101l160 -461l144 461h138z" />
    <glyph glyph-name="wdieresis" unicode="&#x1e85;" horiz-adv-x="945" 
d="M413 701v-112h-119v112h119zM651 701v-112h-120v112h120zM791 521h129l-191 -521h-122l-135 367l-135 -367h-121l-191 521h128l125 -364l138 364h113l137 -364z" />
    <glyph glyph-name="Ygrave" unicode="&#x1ef2;" horiz-adv-x="711" 
d="M201 920h154l58 -159h-97zM686 700l-265 -415v-285h-131v285l-265 415h148l182 -292l182 292h149z" />
    <glyph glyph-name="ygrave" unicode="&#x1ef3;" horiz-adv-x="626" 
d="M371 581h-97l-115 159h154zM471 521h130l-317 -711h-129l94 207l-224 504h131l157 -364z" />
    <glyph glyph-name="endash" unicode="&#x2013;" horiz-adv-x="600" 
d="M555 329v-107h-510v107h510z" />
    <glyph glyph-name="emdash" unicode="&#x2014;" horiz-adv-x="660" 
d="M615 329v-107h-570v107h570z" />
    <glyph glyph-name="quoteleft" unicode="&#x2018;" horiz-adv-x="250" 
d="M225 700l-90 -257h-110l89 257h111z" />
    <glyph glyph-name="quoteright" unicode="&#x2019;" horiz-adv-x="250" 
d="M25 443l90 257h110l-89 -257h-111z" />
    <glyph glyph-name="quotesinglbase" unicode="&#x201a;" horiz-adv-x="255" 
d="M25 -114l90 257h110l-89 -257h-111z" />
    <glyph glyph-name="quotedblleft" unicode="&#x201c;" horiz-adv-x="408" 
d="M225 700l-90 -257h-110l89 257h111zM383 700l-90 -257h-110l89 257h111z" />
    <glyph glyph-name="quotedblright" unicode="&#x201d;" horiz-adv-x="408" 
d="M25 443l90 257h110l-89 -257h-111zM183 443l90 257h110l-89 -257h-111z" />
    <glyph glyph-name="quotedblbase" unicode="&#x201e;" horiz-adv-x="408" 
d="M25 -114l90 257h110l-89 -257h-111zM183 -114l90 257h110l-89 -257h-111z" />
    <glyph glyph-name="dagger" unicode="&#x2020;" horiz-adv-x="380" 
d="M330 568v-84h-100l-14 -172h-51l-14 172h-101v84h94l-11 132h115l-11 -132h93z" />
    <glyph glyph-name="daggerdbl" unicode="&#x2021;" horiz-adv-x="380" 
d="M235 568h95v-84h-103l-11 -110h-51l-11 110h-104v84h96l-13 132h115zM216 326l11 -110h103v-84h-95l13 -132h-115l13 132h-96v84h104l11 110h51z" />
    <glyph glyph-name="bullet" unicode="&#x2022;" horiz-adv-x="248" 
d="M124 228q-31 0 -52.5 21t-21.5 53t21.5 53t52.5 21t52.5 -21t21.5 -53t-21.5 -53t-52.5 -21z" />
    <glyph glyph-name="ellipsis" unicode="&#x2026;" horiz-adv-x="712" 
d="M109 -5q-31 0 -52.5 21t-21.5 53t21.5 53t52.5 21t52.5 -21t21.5 -53t-21.5 -53t-52.5 -21zM356 -5q-31 0 -52.5 21t-21.5 53t21.5 53t52.5 21t52.5 -21t21.5 -53t-21.5 -53t-52.5 -21zM603 -5q-31 0 -52.5 21t-21.5 53t21.5 53t52.5 21t52.5 -21t21.5 -53t-21.5 -53
t-52.5 -21z" />
    <glyph glyph-name="perthousand" unicode="&#x2030;" horiz-adv-x="1023" 
d="M159 705q52 0 88 -35.5t36 -87.5t-36 -87.5t-88 -35.5t-88 35.5t-36 87.5t36 87.5t88 35.5zM505 702l103 -65l-427 -637l-105 65zM159 621q-16 0 -27.5 -11.5t-11.5 -27.5t11.5 -27.5t27.5 -11.5t27.5 11.5t11.5 27.5t-11.5 27.5t-27.5 11.5zM539 241q52 0 88 -35.5
t36 -87.5t-36 -87.5t-88 -35.5t-88 35.5t-36 87.5t36 87.5t88 35.5zM864 241q52 0 88 -35.5t36 -87.5t-36 -87.5t-88 -35.5t-88 35.5t-36 87.5t36 87.5t88 35.5zM539 157q-16 0 -27.5 -11.5t-11.5 -27.5t11.5 -27.5t27.5 -11.5t27.5 11.5t11.5 27.5t-11.5 27.5t-27.5 11.5z
M864 157q-16 0 -27.5 -11.5t-11.5 -27.5t11.5 -27.5t27.5 -11.5t27.5 11.5t11.5 27.5t-11.5 27.5t-27.5 11.5z" />
    <glyph glyph-name="guilsinglleft" unicode="&#x2039;" horiz-adv-x="254" 
d="M40 311l149 150l40 -43l-102 -132l102 -132l-40 -43l-149 149v51z" />
    <glyph glyph-name="guilsinglright" unicode="&#x203a;" horiz-adv-x="254" 
d="M214 311v-51l-149 -149l-40 43l102 132l-102 132l40 43z" />
    <glyph glyph-name="fraction" unicode="&#x2044;" horiz-adv-x="108" 
d="M288 700l-430 -700h-48l436 700h42z" />
    <glyph glyph-name="Euro" unicode="&#x20ac;" horiz-adv-x="733" 
d="M620 167l79 -92q-97 -85 -238 -85q-119 0 -215.5 69t-131.5 182h-89v83h74q-1 9 -1 26v14h-73v82h85q32 118 130.5 191t220.5 73q138 0 234 -83l-79 -90q-67 50 -147 50q-73 0 -131 -38t-85 -103h195v-82h-214v-14q0 -18 1 -26h213v-83h-189q29 -59 85 -93.5t125 -34.5
q84 0 151 54z" />
    <glyph glyph-name="trademark" unicode="&#x2122;" horiz-adv-x="571" 
d="M236 700v-43h-61v-137h-49v137h-61v43h171zM506 700v-180h-49v97l-49 -97h-38l-50 97v-97h-49v180h49l68 -127l69 127h49z" />
    <glyph glyph-name="oneeighth" unicode="&#x215b;" horiz-adv-x="556" 
d="M100 701v-261h-37v221l-17 -11l-18 31l35 20h37zM503 700l-430 -700h-48l436 700h42zM439 263q36 0 57.5 -20t21.5 -47q0 -34 -30 -53q43 -21 43 -66q0 -34 -27 -56.5t-65 -22.5q-37 0 -64 22.5t-27 56.5q0 45 43 66q-30 19 -30 53q0 26 21.5 46.5t56.5 20.5zM439 232
q-20 0 -30.5 -10.5t-10.5 -25.5t12.5 -27t28.5 -12q17 0 29 11.5t12 27.5q0 36 -41 36zM439 126q-22 0 -38 -14t-16 -35q0 -20 16 -34t38 -14q24 0 39 13t15 35t-15 35.5t-39 13.5z" />
    <glyph glyph-name="threeeighths" unicode="&#x215c;" horiz-adv-x="574" 
d="M116 703q32 0 56 -20.5t24 -47.5q0 -32 -30 -53q42 -18 42 -66q0 -34 -27.5 -57t-64.5 -23q-41 0 -68 27.5t-23 63.5h38q-6 -23 11 -41t42 -18q22 0 38 13.5t16 34.5q0 28 -20 39t-54 5v32q63 3 63 43q0 15 -12.5 26t-30.5 11q-22 0 -35.5 -16t-10.5 -42h-38
q-4 38 21.5 63.5t62.5 25.5zM523 700l-430 -700h-48l436 700h42zM457 263q36 0 57.5 -20t21.5 -47q0 -34 -30 -53q43 -21 43 -66q0 -34 -27 -56.5t-65 -22.5q-37 0 -64 22.5t-27 56.5q0 45 43 66q-30 19 -30 53q0 26 21.5 46.5t56.5 20.5zM457 232q-20 0 -30.5 -10.5
t-10.5 -25.5t12.5 -27t28.5 -12q17 0 29 11.5t12 27.5q0 36 -41 36zM457 126q-22 0 -38 -14t-16 -35q0 -20 16 -34t38 -14q24 0 39 13t15 35t-15 35.5t-39 13.5z" />
    <glyph glyph-name="fiveeighths" unicode="&#x215d;" horiz-adv-x="576" 
d="M186 701v-32h-104l-8 -58q22 10 45 10q35 0 63 -26.5t28 -65.5t-28 -66t-67 -27q-33 0 -58.5 18.5t-31.5 43.5l33 19q2 -20 17.5 -34.5t39.5 -14.5q23 0 40 17.5t17 43.5q0 25 -16.5 42.5t-36.5 17.5q-35 0 -57 -29l-32 8l18 133h138zM523 700l-430 -700h-48l436 700h42z
M459 263q36 0 57.5 -20t21.5 -47q0 -34 -30 -53q43 -21 43 -66q0 -34 -27 -56.5t-65 -22.5q-37 0 -64 22.5t-27 56.5q0 45 43 66q-30 19 -30 53q0 26 21.5 46.5t56.5 20.5zM459 232q-20 0 -30.5 -10.5t-10.5 -25.5t12.5 -27t28.5 -12q17 0 29 11.5t12 27.5q0 36 -41 36z
M459 126q-22 0 -38 -14t-16 -35q0 -20 16 -34t38 -14q24 0 39 13t15 35t-15 35.5t-39 13.5z" />
    <glyph glyph-name="seveneighths" unicode="&#x215e;" horiz-adv-x="556" 
d="M200 701l-102 -261h-39l89 229h-121v32h173zM503 700l-430 -700h-48l436 700h42zM439 263q36 0 57.5 -20t21.5 -47q0 -34 -30 -53q43 -21 43 -66q0 -34 -27 -56.5t-65 -22.5q-37 0 -64 22.5t-27 56.5q0 45 43 66q-30 19 -30 53q0 26 21.5 46.5t56.5 20.5zM439 232
q-20 0 -30.5 -10.5t-10.5 -25.5t12.5 -27t28.5 -12q17 0 29 11.5t12 27.5q0 36 -41 36zM439 126q-22 0 -38 -14t-16 -35q0 -20 16 -34t38 -14q24 0 39 13t15 35t-15 35.5t-39 13.5z" />
    <glyph glyph-name="partialdiff" unicode="&#x2202;" horiz-adv-x="554" 
d="M98 700h134l169 -226l15 -19q14 -19 16 -22l14.5 -21t15.5 -24.5t13 -24t13.5 -27l10 -26.5t9 -30t4.5 -30t2 -34q0 -97 -71.5 -161.5t-165.5 -64.5q-95 0 -166 63.5t-71 159.5q0 89 68 156.5t156 67.5q30 0 40 -9zM277 325q-49 0 -82 -32.5t-33 -78.5q0 -50 33 -81
t82 -31t82 31t33 81q0 45 -31.5 78t-83.5 33z" />
    <glyph glyph-name="product" unicode="&#x220f;" horiz-adv-x="729" 
d="M45 800h639v-990h-126v873h-387v-873h-126v990z" />
    <glyph glyph-name="summation" unicode="&#x2211;" horiz-adv-x="689" 
d="M644 800v-117h-391l208 -378l-208 -378h391v-117h-599l275 495l-275 495h599z" />
    <glyph glyph-name="minus" unicode="&#x2212;" horiz-adv-x="425" 
d="M380 329v-107h-335v107h335z" />
    <glyph glyph-name="radical" unicode="&#x221a;" horiz-adv-x="818" 
d="M773 800l-272 -990h-151l-184 432h-121v144h208l164 -406l227 820h129z" />
    <glyph glyph-name="infinity" unicode="&#x221e;" horiz-adv-x="826" 
d="M603 433q78 0 128 -49.5t50 -121.5q0 -74 -49.5 -124t-128.5 -50q-93 0 -191 100q-96 -100 -188 -100q-79 0 -129 49.5t-50 124.5q0 73 50 122t129 49q91 0 188 -99q99 99 191 99zM226 189q71 0 122 73q-52 73 -122 73q-34 0 -56 -21.5t-22 -51.5q0 -31 22 -52t56 -21z
M600 189q33 0 55.5 21.5t22.5 51.5t-22.5 51.5t-55.5 21.5q-70 0 -124 -73q53 -73 124 -73z" />
    <glyph glyph-name="integral" unicode="&#x222b;" horiz-adv-x="312" 
d="M287 800v-112q-45 0 -56.5 -21.5t-11.5 -75.5v-612q0 -95 -44.5 -132t-154.5 -37v113q46 0 57 16t11 67v612q0 97 45.5 139.5t153.5 42.5z" />
    <glyph glyph-name="approxequal" unicode="&#x2248;" horiz-adv-x="521" 
d="M172 442q43 0 109.5 -35t100.5 -35q16 0 30 8t14 18h50q0 -54 -32.5 -90t-92.5 -36q-42 0 -109.5 40t-105.5 40q-15 0 -29 -11t-13 -24h-49q0 54 32.5 89.5t94.5 35.5zM172 276q43 0 109.5 -35t100.5 -35q16 0 30 8t14 18h50q0 -54 -32.5 -90t-92.5 -36q-42 0 -109.5 40
t-105.5 40q-15 0 -29 -11t-13 -24h-49q0 54 32.5 89.5t94.5 35.5z" />
    <glyph glyph-name="notequal" unicode="&#x2260;" horiz-adv-x="425" 
d="M380 302h-104l-20 -53h124v-107h-166l-55 -142h-111l55 142h-58v107h100l20 53h-120v107h162l59 152h111l-59 -152h62v-107z" />
    <glyph glyph-name="lessequal" unicode="&#x2264;" horiz-adv-x="419" 
d="M388 593v-110l-192 -108l192 -106v-112l-343 200v37zM388 109v-107h-335v107h335z" />
    <glyph glyph-name="greaterequal" unicode="&#x2265;" horiz-adv-x="434" 
d="M46 593l343 -199v-37l-343 -200v112l192 106l-192 108v110zM46 109h335v-107h-335v107z" />
    <glyph glyph-name="lozenge" unicode="&#x25ca;" horiz-adv-x="584" 
d="M384 700l155 -350l-155 -350h-184l-155 350l155 350h184zM292 93l114 257l-114 257l-114 -257z" />
    <glyph glyph-name="M.ss01" horiz-adv-x="915" 
d="M800 700l60 -700h-135l-37 459l-175 -459h-111l-175 459l-37 -459h-135l60 700h129l214 -524l213 524h129z" />
    <glyph glyph-name="i.loclTRK" horiz-adv-x="240" 
d="M168 701v-112h-119v112h119zM184 520v-520h-129v520h129z" />
    <glyph glyph-name="f_t" horiz-adv-x="717" 
d="M682 414h-111v-257q0 -50 43 -50q35 0 68 12v-107q-36 -18 -102 -18q-64 0 -100.5 34.5t-36.5 126.5v259h-228v-414h-129v414h-66v106h66v24q0 43 12 76t30 51t43 29t45.5 14t42.5 3q73 0 128 -33l-45 -89q-39 16 -69 16q-58 0 -58 -67v-24h228v122h128v-122h111v-106z
" />
    <glyph glyph-name="t_t" horiz-adv-x="735" 
d="M701 414h-111v-257q0 -50 43 -50q35 0 68 12v-107q-36 -18 -102 -18q-64 0 -100.5 34.5t-36.5 126.5v259h-238v-257q0 -50 43 -50q35 0 68 12v-107q-36 -18 -102 -18q-64 0 -100.5 34.5t-36.5 126.5v259h-73v106h73v122h128v-122h238v122h128v-122h111v-106z" />
    <glyph glyph-name="zero.tf" horiz-adv-x="700" 
d="M350 710q124 0 204.5 -94t80.5 -266t-80.5 -266t-204.5 -94q-123 0 -204 94t-81 266q0 171 81.5 265.5t203.5 94.5zM350 597q-57 0 -93.5 -38.5t-50 -91t-13.5 -117.5q0 -66 13.5 -118t50 -90t93.5 -38t93.5 38t50 90t13.5 118q0 65 -13.5 117.5t-50 91t-93.5 38.5z" />
    <glyph glyph-name="one.tf" horiz-adv-x="700" 
d="M414 700v-700h-131v582h-115v118h246z" />
    <glyph glyph-name="two.tf" horiz-adv-x="700" 
d="M347 707q106 0 171 -63t65 -151q0 -16 -1.5 -30.5t-7 -30l-9 -26t-15.5 -29l-18 -28t-24.5 -32.5l-28 -34l-35 -41.5l-38.5 -46.5l-68 -81h245v-114h-474v19l179 214q105 125 133 167.5t28 86.5q0 55 -31.5 79.5t-70.5 24.5q-41 0 -71.5 -27t-30.5 -86v-18h-134v18
q0 97 63 163t173 66z" />
    <glyph glyph-name="three.tf" horiz-adv-x="700" 
d="M189 201q48 -98 144 -98q29 0 56.5 9.5t51 39.5t23.5 78q0 72 -61 107.5t-159 10.5l144 240h-267v112h454l-162 -262q76 -8 129 -66.5t53 -141.5q0 -110 -75.5 -175t-187.5 -65q-86 0 -149.5 41.5t-93.5 109.5z" />
    <glyph glyph-name="four.tf" horiz-adv-x="700" 
d="M601 274v-112h-75v-162h-131v162h-302v112l302 426h131v-426h75zM227 274h168v249z" />
    <glyph glyph-name="five.tf" horiz-adv-x="700" 
d="M525 700v-112h-258l-19 -143q38 33 112 33q96 0 168.5 -68.5t72.5 -174.5q0 -110 -74.5 -177.5t-185.5 -67.5q-85 0 -150.5 40.5t-93.5 105.5l101 54q16 -33 51 -59t92 -26q52 0 91.5 32.5t39.5 97.5q0 67 -41 100.5t-93 33.5q-60 0 -113 -51l-108 34l47 348h361z" />
    <glyph glyph-name="six.tf" horiz-adv-x="700" 
d="M529 700l-206 -272q10 9 40 9q88 0 156 -67.5t68 -156.5q0 -96 -71 -159.5t-166 -63.5q-94 0 -165.5 64.5t-71.5 161.5q0 17 2 34t4.5 30t9 30l10 26.5t13.5 27t13 24t15.5 24.5l14.5 21t17 22l14 19l169 226h134zM350 325q-52 0 -83.5 -33t-31.5 -78q0 -50 33 -81
t82 -31t82 31t33 81q0 46 -33 78.5t-82 32.5z" />
    <glyph glyph-name="seven.tf" horiz-adv-x="700" 
d="M595 700l-288 -700h-127l245 588h-284v112h454z" />
    <glyph glyph-name="eight.tf" horiz-adv-x="700" 
d="M475 398q52 -23 84.5 -71.5t32.5 -109.5q0 -102 -75.5 -164.5t-173.5 -62.5t-173 62.5t-75 164.5q0 61 32.5 109.5t83.5 71.5q-69 49 -69 134q0 74 55.5 126t145.5 52q91 0 146.5 -52t55.5 -126q0 -86 -70 -134zM263 521q0 -31 22 -53.5t58 -22.5t58.5 22.5t22.5 53.5
q0 32 -23 53.5t-58 21.5q-34 0 -57 -21.5t-23 -53.5zM343 106q50 0 83.5 31t33.5 80q0 52 -34.5 83t-82.5 31q-47 0 -81.5 -31t-34.5 -83q0 -50 33 -80.5t83 -30.5z" />
    <glyph glyph-name="nine.tf" horiz-adv-x="700" 
d="M164 -1l206 272q-10 -9 -40 -9q-88 0 -156 67.5t-68 156.5q0 96 71 159.5t166 63.5q94 0 165.5 -64.5t71.5 -161.5q0 -17 -2 -34t-4.5 -30t-9 -30l-10 -26.5t-13.5 -27t-13 -24t-15.5 -24.5l-14.5 -21t-16 -22l-15 -19l-169 -226h-134zM343 374q52 0 83.5 33t31.5 78
q0 50 -33 81t-82 31t-82 -31t-33 -81q0 -46 33 -78.5t82 -32.5z" />
    <glyph glyph-name="zero.dnom" horiz-adv-x="260" 
d="M130 263q47 0 76 -35t29 -91v-13q0 -56 -29 -91t-76 -35q-45 0 -75 35t-30 91v13q0 56 30 91t75 35zM130 232q-29 0 -48.5 -25.5t-19.5 -69.5v-13q0 -44 19.5 -69.5t48.5 -25.5q31 0 49.5 25t18.5 70v13q0 45 -18.5 70t-49.5 25z" />
    <glyph glyph-name="one.dnom" horiz-adv-x="122" 
d="M97 261v-261h-37v221l-17 -11l-18 31l35 20h37z" />
    <glyph glyph-name="two.dnom" horiz-adv-x="221" 
d="M109 264q34 0 59 -22.5t25 -52.5q0 -26 -14.5 -47t-53.5 -61l-47 -49h118v-32h-168v32l68 69q28 29 36.5 38.5t15.5 22.5t7 27q0 18 -14 31t-32 13q-19 0 -33 -13t-14 -37v-14h-37v14q0 35 24.5 58t59.5 23z" />
    <glyph glyph-name="three.dnom" horiz-adv-x="233" 
d="M116 263q32 0 56 -20.5t24 -47.5q0 -32 -30 -53q42 -18 42 -66q0 -34 -27.5 -57t-64.5 -23q-41 0 -68 27.5t-23 63.5h38q-6 -23 11 -41t42 -18q22 0 38 13.5t16 34.5q0 28 -20 39t-54 5v32q63 3 63 43q0 15 -12.5 26t-30.5 11q-22 0 -35.5 -16t-10.5 -42h-38
q-4 38 21.5 63.5t62.5 25.5z" />
    <glyph glyph-name="four.dnom" horiz-adv-x="246" 
d="M194 261v-154h27v-31h-27v-76h-37v76h-132l132 185h37zM157 202l-65 -95h65v95z" />
    <glyph glyph-name="five.dnom" horiz-adv-x="235" 
d="M186 261v-32h-104l-8 -58q22 10 45 10q35 0 63 -26.5t28 -65.5t-28 -66t-67 -27q-33 0 -58.5 18.5t-31.5 43.5l33 19q2 -20 17.5 -34.5t39.5 -14.5q23 0 40 17.5t17 43.5q0 25 -16.5 42.5t-36.5 17.5q-35 0 -57 -29l-32 8l18 133h138z" />
    <glyph glyph-name="six.dnom" horiz-adv-x="223" 
d="M174 261l-68 -96h6q34 0 60 -25t26 -59q0 -35 -26 -60t-60 -25t-60.5 25t-26.5 60q0 16 5.5 31.5t10 23t18 25l16.5 21.5l57 79h42zM112 133q-22 0 -36 -14t-14 -38q0 -23 15.5 -38t34.5 -15q18 0 33.5 15t15.5 38t-15 37.5t-34 14.5z" />
    <glyph glyph-name="seven.dnom" horiz-adv-x="223" 
d="M198 261l-102 -261h-39l89 229h-121v32h173z" />
    <glyph glyph-name="eight.dnom" horiz-adv-x="233" 
d="M116 263q36 0 57.5 -20t21.5 -47q0 -34 -30 -53q43 -21 43 -66q0 -34 -27 -56.5t-65 -22.5q-37 0 -64 22.5t-27 56.5q0 45 43 66q-30 19 -30 53q0 26 21.5 46.5t56.5 20.5zM116 232q-20 0 -30.5 -10.5t-10.5 -25.5t12.5 -27t28.5 -12q18 0 29.5 11.5t11.5 27.5
q0 36 -41 36zM116 126q-22 0 -38 -14t-16 -35q0 -20 16 -34t38 -14q24 0 39 13t15 35t-15 35.5t-39 13.5z" />
    <glyph glyph-name="nine.dnom" horiz-adv-x="224" 
d="M112 264q34 0 60.5 -24.5t26.5 -59.5q0 -13 -2.5 -24t-9 -22.5t-10.5 -18t-14.5 -19.5l-14.5 -18l-56 -78h-43l68 95h-5q-35 0 -61 25.5t-26 59.5q0 35 26.5 59.5t60.5 24.5zM112 232q-19 0 -34.5 -15t-15.5 -37q0 -23 15.5 -38t34.5 -15q22 0 35.5 14.5t13.5 38.5
q0 22 -15.5 37t-33.5 15z" />
    <glyph glyph-name="zero.numr" horiz-adv-x="260" 
d="M130 703q47 0 76 -35t29 -91v-13q0 -56 -29 -91t-76 -35q-45 0 -75 35t-30 91v13q0 56 30 91t75 35zM130 672q-29 0 -48.5 -25.5t-19.5 -69.5v-13q0 -44 19.5 -69.5t48.5 -25.5q31 0 49.5 25t18.5 70v13q0 45 -18.5 70t-49.5 25z" />
    <glyph glyph-name="one.numr" horiz-adv-x="122" 
d="M97 701v-261h-37v221l-17 -11l-18 31l35 20h37z" />
    <glyph glyph-name="two.numr" horiz-adv-x="221" 
d="M109 704q34 0 59 -22.5t25 -52.5q0 -26 -14.5 -47t-53.5 -61l-47 -49h118v-32h-168v32l68 69q28 29 36.5 38.5t15.5 22.5t7 27q0 18 -14 31t-32 13q-19 0 -33 -13t-14 -37v-14h-37v14q0 35 24.5 58t59.5 23z" />
    <glyph glyph-name="three.numr" horiz-adv-x="233" 
d="M116 703q32 0 56 -20.5t24 -47.5q0 -32 -30 -53q42 -18 42 -66q0 -34 -27.5 -57t-64.5 -23q-41 0 -68 27.5t-23 63.5h38q-6 -23 11 -41t42 -18q22 0 38 13.5t16 34.5q0 28 -20 39t-54 5v32q63 3 63 43q0 15 -12.5 26t-30.5 11q-22 0 -35.5 -16t-10.5 -42h-38
q-4 38 21.5 63.5t62.5 25.5z" />
    <glyph glyph-name="four.numr" horiz-adv-x="246" 
d="M194 701v-154h27v-31h-27v-76h-37v76h-132l132 185h37zM157 642l-65 -95h65v95z" />
    <glyph glyph-name="five.numr" horiz-adv-x="235" 
d="M186 701v-32h-104l-8 -58q22 10 45 10q35 0 63 -26.5t28 -65.5t-28 -66t-67 -27q-33 0 -58.5 18.5t-31.5 43.5l33 19q2 -20 17.5 -34.5t39.5 -14.5q23 0 40 17.5t17 43.5q0 25 -16.5 42.5t-36.5 17.5q-35 0 -57 -29l-32 8l18 133h138z" />
    <glyph glyph-name="six.numr" horiz-adv-x="223" 
d="M174 701l-68 -96h6q34 0 60 -25t26 -59q0 -35 -26 -60t-60 -25t-60.5 25t-26.5 60q0 16 5.5 31.5t10 23t18 25l16.5 21.5l57 79h42zM112 573q-22 0 -36 -14t-14 -38q0 -23 15.5 -38t34.5 -15q18 0 33.5 15t15.5 38t-15 37.5t-34 14.5z" />
    <glyph glyph-name="seven.numr" horiz-adv-x="223" 
d="M198 701l-102 -261h-39l89 229h-121v32h173z" />
    <glyph glyph-name="eight.numr" horiz-adv-x="233" 
d="M116 703q36 0 57.5 -20t21.5 -47q0 -34 -30 -53q43 -21 43 -66q0 -34 -27 -56.5t-65 -22.5q-37 0 -64 22.5t-27 56.5q0 45 43 66q-30 19 -30 53q0 26 21.5 46.5t56.5 20.5zM116 672q-20 0 -30.5 -10.5t-10.5 -25.5t12.5 -27t28.5 -12q18 0 29.5 11.5t11.5 27.5
q0 36 -41 36zM116 566q-22 0 -38 -14t-16 -35q0 -20 16 -34t38 -14q24 0 39 13t15 35t-15 35.5t-39 13.5z" />
    <glyph glyph-name="nine.numr" horiz-adv-x="224" 
d="M112 704q34 0 60.5 -24.5t26.5 -59.5q0 -13 -2.5 -24t-9 -22.5t-10.5 -18t-14.5 -19.5l-14.5 -18l-56 -78h-43l68 95h-5q-35 0 -61 25.5t-26 59.5q0 35 26.5 59.5t60.5 24.5zM112 672q-19 0 -34.5 -15t-15.5 -37q0 -23 15.5 -38t34.5 -15q22 0 35.5 14.5t13.5 38.5
q0 22 -15.5 37t-33.5 15z" />
    </font>
</defs>
</svg>
